<svg xmlns="http://www.w3.org/2000/svg" xmlns:xlink="http://www.w3.org/1999/xlink" width="142" height="142" viewBox="0 0 142 142">
    <defs>
        <path id="prefix__a" d="M0 0H142V142H0z"/>
    </defs>
    <g fill="none" fill-rule="evenodd">
        <mask id="prefix__b" fill="#fff">
            <use xlink:href="#prefix__a"/>
        </mask>
        <g fill-rule="nonzero" mask="url(#prefix__b)">
            <g transform="translate(6 28)">
                <circle cx="38.672" cy="65.162" r="19.079" fill="#F2F2F2"/>
                <path fill="#2F2E41" d="M3.211 84.258H129.989V85.258H3.211z"/>
                <path fill="#3F3D56" d="M37.864 65.283c0 14.258-8.476 19.236-18.931 19.236-.244 0-.486-.002-.726-.009-.485-.01-.965-.031-1.439-.066C7.332 83.777 0 78.542 0 65.283c0-13.721 17.532-31.036 18.854-32.321l.003-.002.076-.075s18.931 18.138 18.931 32.398z"/>
                <path fill="#F2F2F2" d="M18.242 82.338l6.925-9.675L18.225 83.4l-.018 1.11c-.485-.01-.965-.031-1.439-.066l.746-14.264-.005-.11.013-.022.07-1.347-6.96-10.764 6.981 9.754.017.285.565-10.778-5.958-11.122 6.03 9.229.587-22.343.003-.077v.075l-.098 17.62 5.93-6.986-5.955 8.503-.156 9.65 5.538-9.26-5.562 10.681-.087 5.365 8.04-12.891-8.07 14.763-.195 11.933z"/>
                <path fill="#A0616A" d="M105.712 26.543l-2.632-2.763s-2.894-4.342-5-3.158c-2.105 1.184 3.027 3.947 3.027 3.947l2.631 4.343 1.974-2.369z"/>
                <path fill="#2F2E41" d="M114.001 80.096s1.974 3.816.527 4.079c-1.448.263-8.553.658-8.685.263-.131-.395-1.184-1.71-.394-2.237.79-.526 3.947-.921 3.947-.921l1.053-1.053 3.552-.131z"/>
                <path fill="#2F2E41" d="M115.054 42.859s4.21 5.263.79 10.658l-.79 9.079s1.447 12.5-.395 16.71l-.263 1.448h-4.605l1.184-11.053s-.132-1.316-.526-1.579c-.395-.263-6.842-14.474-6.842-14.474s1.052-1.973.657-2.368c-.394-.395.395-8.29.79-8.553.395-.263 10 .132 10 .132z"/>
                <path fill="#A0616A" d="M107.554 78.912L107.028 81.938 112.159 81.675 111.501 78.385z"/>
                <circle cx="108.475" cy="21.28" r="3.947" fill="#A0616A"/>
                <path fill="#A0616A" d="M112.028 21.938l.394 4.737-4.21 1.973s.724-4.407.197-5.592l3.619-1.118z"/>
                <path fill="#575A89" d="M107.686 28.385l.394-1.579 5.395-1.973s.526 0 .395.92c-.132.922-.132.79-.132.79s1.842.79 1.974 2.105c.131 1.316 2.237 1.71 2.105 3.685-.131 1.973-.79 3.026-.79 3.026s.659 1.579-.394 2.5c0 0-1.053 1.842-.526 3.158.526 1.316 1.184 3.552-.264 3.158-1.447-.395-11.447-1.053-11.447-1.053s-1.447-5.395.132-7.368c0 0 0-1.185 1.184-3.553s1.974-3.816 1.974-3.816z"/>
                <path fill="#A0616A" d="M114.66 43.254s-1.711 7.237-3.817 8.026c0 0-.394 5.263-2.631 5-2.237-.263 0-5 0-5l2.5-9.079 3.947 1.053z"/>
                <path fill="#575A89" d="M107.949 28.78s-1.974-3.158-2.5-2.632c-.527.527-3.158 2.106-3.027 3.158.132 1.053 1.316 1.053 1.316 1.053l2.763 2.105 1.448-3.684z"/>
                <path fill="#2F2E41" d="M105.186 52.333l-1.58 1.135-1.052 11.233s3.816 15.263 4.868 15.395c1.053.131 5.395.131 5.264-.263-.132-.395-.79-1.974-.79-2.369 0-.395-1.372-3.551-1.372-3.551l-1.786-7.37.395-5.79-3.947-8.42z"/>
                <path fill="#2F2E41" d="M107.16 80.885s5.526-1.71 5.789-1.316c.263.395 2.018 4.374-.438 4.819-2.457.445-11.273 1.234-11.273.05s.263-1.974 1.053-1.974c.79 0 4.342-1.71 4.605-2.105.263-.395.263.526.263.526zM112.218 21.54c.076-.151.046-.334-.074-.453-.12-.118-.303-.146-.453-.068l-.007.004c-.235.142-.361.41-.321.682-.475-.473-.125-1.423-.638-1.854-.237-.2-.622-.244-.744-.53-.071-.166-.023-.363-.085-.532-.093-.252-.39-.357-.655-.396-.835-.125-1.678.087-2.495.297-.3.077-.616.163-.835.383-.23.231-.31.568-.452.862-.141.295-1.068.268-1.392.227-.113-.32.72-.344.787-.677.186-.908-.46-1.874-.143-2.745.19-.525.69-.873 1.192-1.117 1.396-.67 2.99-.807 4.479-.382.152.034.293.102.414.2.19.179.226.465.354.694.29.52.978.644 1.442 1.018.703.567.782 1.59.805 2.492.011.455.02.927-.167 1.342-.186.415-.627.753-1.073.666.02-.034.041-.073.06-.114z"/>
                <path fill="#575A89" d="M111.531 30.062c1.048-.727 2.454-.655 3.423.174.906.77 1.882 1.875 1.81 3.018-.131 2.105-.92 10.79-1.973 10.92-1.053.132-4.869-.92-4.869-1.578s.921-1.448.921-1.448l-1.118-6.71c-.288-1.659.39-3.338 1.747-4.334l.06-.042z"/>
                <path fill="#3F3D56" d="M96.862 0h-31.66c-3.147 0-5.874 2.18-6.566 5.25L42.64 76.206c-.353 1.567.004 3.21.976 4.488.971 1.279 2.459 2.063 4.063 2.142l32.546 1.603c3.605.178 6.783-2.346 7.425-5.898l9.075-50.167.675.193 1.736-9.509-.695-.173 2.533-14.004c.22-1.214-.113-2.463-.908-3.407S98.095-.01 96.862 0z"/>
                <path fill="#F3431C" d="M69.37 1.53h-3.696c-2.187 0-4.078 1.523-4.544 3.66L45.775 75.566c-.18.82.008 1.677.513 2.347.505.67 1.276 1.088 2.114 1.143l32.441 2.126c1.895.124 3.581-1.194 3.918-3.063L97.863 5.378c.172-.953-.088-1.933-.709-2.676-.621-.743-1.54-1.172-2.508-1.172H91.14c-.698 0-1.308.468-1.49 1.142-.16.594-.7 1.008-1.315 1.008H71.69c-1.217 0-2.228-.937-2.321-2.15z"/>
                <path fill="#2F2E41" d="M59.034 19.72H92.60300000000001V20.72H59.034zM57.711 25.094H91.61099999999999V26.094H57.711zM90.484 19.458L89.721 18.441 89.853 18.342 90.512 19.221 93.052 17.142 93.157 17.271zM86.101 43.436L85.339 42.419 85.471 42.32 86.13 43.199 88.67 41.12 88.775 41.249z"/>
                <path fill="#2F2E41" d="M71.478 26.331H72.478V61.479H71.478z" transform="rotate(-88.787 71.56 43.905)"/>
                <path fill="#2F2E41" d="M70.734 30.919H71.734V66.73H70.734z" transform="rotate(-88.677 70.817 48.824)"/>
                <path fill="#000" d="M74.868 62.425c0 4.339-3.517 7.855-7.855 7.855-4.338 0-7.855-3.516-7.855-7.855 0-.098.002-.195.006-.293.16-4.278 3.716-7.64 7.996-7.56 4.28.08 7.708 3.573 7.708 7.853z" opacity=".1"/>
                <path fill="#000" d="M74.124 65.485c0 .098-.002.196-.006.293-1.57 3.325-5.235 5.116-8.822 4.312-3.587-.804-6.137-3.988-6.138-7.665 0-.098.002-.195.006-.293 1.57-3.325 5.235-5.116 8.822-4.312 3.587.804 6.137 3.988 6.138 7.665z" opacity=".1"/>
                <path fill="#F2F2F2" d="M65.423 64.587L62.631 60.863 63.292 60.367 65.567 63.4 74.524 56.073 75.047 56.713z"/>
            </g>
        </g>
    </g>
</svg>
