<svg xmlns="http://www.w3.org/2000/svg" xmlns:xlink="http://www.w3.org/1999/xlink" width="142" height="142" viewBox="0 0 142 142">
    <defs>
        <linearGradient id="prefix__c" x1="50.008%" x2="50.008%" y1="100.003%" y2="-.107%">
            <stop offset="0%" stop-color="gray" stop-opacity=".25"/>
            <stop offset="54%" stop-color="gray" stop-opacity=".12"/>
            <stop offset="100%" stop-color="gray" stop-opacity=".1"/>
        </linearGradient>
        <path id="prefix__a" d="M0 0H142V142H0z"/>
    </defs>
    <g fill="none" fill-rule="evenodd">
        <mask id="prefix__b" fill="#fff">
            <use xlink:href="#prefix__a"/>
        </mask>
        <g mask="url(#prefix__b)">
            <g transform="translate(6 33)">
                <g fill-rule="nonzero" opacity=".1" transform="translate(83.482)">
                    <ellipse cx="12.098" cy="71.088" fill="#3F3D56" rx="2.512" ry="3.288"/>
                    <path fill="#3F3D56" d="M14.086 57.021c.352-.61.535-1.304.529-2.01 0-1.819-1.125-3.287-2.512-3.287-1.388 0-2.512 1.471-2.512 3.288-.007.704.174 1.398.525 2.01-.7 1.248-.7 2.77 0 4.018-.7 1.248-.7 2.77 0 4.02-.35.61-.532 1.304-.525 2.009 0 1.82 1.125 3.288 2.512 3.288 1.386 0 2.512-1.472 2.512-3.288.007-.705-.174-1.399-.524-2.01.699-1.248.699-2.77 0-4.02.699-1.247.699-2.77 0-4.018h-.005z"/>
                    <ellipse cx="12.098" cy="50.993" fill="#3F3D56" rx="2.512" ry="3.288"/>
                    <ellipse cx="12.098" cy="46.974" fill="#3F3D56" rx="2.512" ry="3.288"/>
                    <path fill="#F3431C" d="M21.502 19.47c.343-.437.655-.897.935-1.377L15.84 17.01l7.14.054c1.382-3.012 1.464-6.46.227-9.534l-9.58 4.966 8.836-6.49C20.206 2.111 15.965-.199 11.469.02 6.973.237 2.974 2.946 1.105 7.04c-1.87 4.095-1.298 8.89 1.482 12.43-.534.68-.994 1.416-1.371 2.194l8.568 4.452-9.136-3.07c-1.306 3.85-.578 8.1 1.934 11.298-3.88 4.932-3.317 12.019 1.293 16.277 4.61 4.258 11.718 4.258 16.328 0 4.61-4.258 5.173-11.345 1.293-16.277 3.434-4.365 3.434-10.513 0-14.878l.006.004z"/>
                    <path fill="#000" d="M.012 26.91c-.004 2.699.904 5.32 2.575 7.438-3.88 4.933-3.316 12.02 1.293 16.277 4.61 4.259 11.719 4.259 16.329 0 4.61-4.258 5.173-11.344 1.293-16.277 1.613-2.047-21.49-8.79-21.49-7.438z"/>
                </g>
                <g fill-rule="nonzero" opacity=".1" transform="translate(17.743 25.477)">
                    <ellipse cx="7.371" cy="43.381" fill="#3F3D56" rx="1.529" ry="2.002"/>
                    <path fill="#3F3D56" d="M8.587 34.818c.213-.372.324-.795.32-1.224 0-1.105-.683-2.002-1.53-2.002s-1.529.897-1.529 2.002c-.004.43.106.852.319 1.224-.425.76-.425 1.686 0 2.446-.425.76-.425 1.687 0 2.447-.213.372-.323.794-.319 1.223 0 1.106.683 2.002 1.529 2.002.846 0 1.53-.896 1.53-2.002.004-.43-.106-.851-.32-1.223.426-.76.426-1.687 0-2.447.426-.76.426-1.686 0-2.446z"/>
                    <ellipse cx="7.371" cy="31.148" fill="#3F3D56" rx="1.529" ry="2.002"/>
                    <ellipse cx="7.371" cy="28.701" fill="#3F3D56" rx="1.529" ry="2.002"/>
                    <path fill="#F3431C" d="M1.65 11.957c-.21-.266-.4-.546-.57-.838l4.019-.66-4.346.033c-.84-1.832-.891-3.93-.14-5.8L6.44 7.718 1.063 3.76C2.438 1.39 5.02-.014 7.755.12c2.736.133 5.169 1.781 6.307 4.273 1.138 2.491.79 5.41-.9 7.564.325.413.605.86.834 1.334L8.78 16.003l5.562-1.867c.794 2.345.35 4.933-1.18 6.879 2.361 3.003 2.018 7.316-.788 9.908-2.806 2.593-7.133 2.593-9.94 0-2.806-2.592-3.149-6.905-.787-9.908-2.09-2.658-2.09-6.4 0-9.058h.002z"/>
                    <path fill="#000" d="M14.729 16.486c.002 1.643-.55 3.239-1.567 4.529 2.361 3.003 2.018 7.316-.788 9.908-2.806 2.593-7.133 2.593-9.94 0-2.806-2.592-3.149-6.905-.787-9.908-.982-1.24 13.082-5.351 13.082-4.529z"/>
                </g>
                <g fill-rule="nonzero" opacity=".1" transform="translate(49.816 11.942)">
                    <ellipse cx="9.76" cy="57.981" fill="#3F3D56" rx="2.046" ry="2.678"/>
                    <path fill="#3F3D56" d="M11.38 46.521c.284-.498.432-1.063.426-1.637 0-1.479-.91-2.679-2.047-2.679-1.138 0-2.048 1.2-2.048 2.679-.006.574.142 1.14.428 1.637-.57 1.017-.57 2.258 0 3.275-.57 1.016-.57 2.256 0 3.273-.286.498-.434 1.064-.428 1.638 0 1.478.917 2.678 2.048 2.678 1.13 0 2.047-1.2 2.047-2.678.006-.574-.142-1.14-.427-1.638.569-1.017.569-2.256 0-3.273.569-1.018.569-2.257 0-3.275z"/>
                    <ellipse cx="9.76" cy="41.61" fill="#3F3D56" rx="2.046" ry="2.678"/>
                    <ellipse cx="9.76" cy="38.336" fill="#3F3D56" rx="2.046" ry="2.678"/>
                    <path fill="#F3431C" d="M2.104 15.93c-.28-.356-.534-.73-.762-1.122l5.376-.882-5.814.043C-.223 11.516-.29 8.707.717 6.202l7.802 4.047L1.323 4.96C3.155 1.775 6.615-.117 10.285.057c3.67.175 6.935 2.387 8.457 5.732 1.522 3.344 1.046 7.259-1.234 10.14.436.555.81 1.154 1.117 1.789l-6.978 3.626 7.441-2.503c1.062 3.139.468 6.6-1.58 9.205 3.16 4.018 2.702 9.79-1.053 13.26-3.756 3.468-9.546 3.468-13.302 0-3.755-3.47-4.214-9.242-1.053-13.26-2.797-3.556-2.797-8.564 0-12.12l.004.004z"/>
                    <path fill="#000" d="M19.606 21.99c.003 2.2-.736 4.335-2.098 6.06 3.16 4.019 2.702 9.791-1.053 13.26-3.756 3.469-9.546 3.469-13.302 0C-.602 37.841-1.06 32.07 2.1 28.05c-1.314-1.667 17.506-7.16 17.506-6.06z"/>
                </g>
                <path fill="#3F3D56" fill-rule="nonzero" d="M130 72.361c0 .781-5.712 1.496-15.155 2.047-1.718.1-3.558.194-5.51.282-1.686.076-3.453.148-5.302.215-1.791.064-3.65.123-5.579.178-6.09.174-12.821.299-19.973.361-1.736.016-3.494.028-5.276.037-1.856.008-3.734.012-5.632.011-34.478 0-62.426-1.4-62.426-3.128 0-1.727 27.948-3.127 62.426-3.127 14.843 0 28.475.26 39.189.692l1.171.048h.007c13.496.572 22.06 1.433 22.06 2.384z"/>
                <path fill="#000" fill-rule="nonzero" d="M130 72.361c0 .781-5.712 1.496-15.155 2.047-1.718.1-3.558.194-5.51.282-1.686.076-3.453.148-5.302.215-1.791.064-3.65.123-5.579.178-6.09.174-12.821.299-19.973.361-1.736.016-3.494.028-5.276.037-1.856.008-3.734.012-5.632.011-34.478 0-62.426-1.4-62.426-3.128 0-1.727 27.948-3.127 62.426-3.127 14.843 0 28.475.26 39.189.692l1.171.048h.007c13.496.572 22.06 1.433 22.06 2.384z" opacity=".15"/>
                <path fill="#3F3D56" fill-rule="nonzero" d="M124.853 71.81c0 .653-5.711 1.252-15.155 1.707-1.716.083-3.557.161-5.508.235-1.687.064-3.455.124-5.302.18-1.791.053-3.651.102-5.58.149-6.09.145-12.822.25-19.973.302-1.735.013-3.493.023-5.277.03-1.856.007-3.733.01-5.63.01C27.948 74.423 0 73.253 0 71.807c0-1.445 27.95-2.616 62.427-2.616 14.843 0 28.474.217 39.188.58l1.171.039h.008c13.5.486 22.06 1.2 22.06 2zM16.123 48.048L14.556 43.249 52.089 42.839 53.626 47.589z"/>
                <path fill="#000" fill-rule="nonzero" d="M16.123 48.048L14.556 43.249 52.089 42.839 53.626 47.589z" opacity=".15"/>
                <path fill="#3F3D56" fill-rule="nonzero" d="M13.621 48.048L12.054 43.249 49.587 42.839 51.124 47.589zM77.694 40.674c-3.88 0-6.939-1.54-9.175-4.62-2.236-3.082-3.354-6.814-3.354-11.197 0-4.413 1.081-8.137 3.244-11.173 2.162-3.036 5.213-4.553 9.15-4.55 4.177 0 7.324 1.6 9.44 4.799 2.118 3.199 3.177 6.901 3.178 11.107 0 4.176-1.096 7.826-3.287 10.95-2.192 3.125-5.257 4.686-9.196 4.684zm.114-3.465c2.553 0 4.46-1.113 5.724-3.338 1.263-2.226 1.895-5.031 1.895-8.417 0-3.768-.646-6.854-1.94-9.257-1.292-2.403-3.275-3.605-5.948-3.605-5.08 0-7.62 4.035-7.62 12.106 0 8.341 2.629 12.511 7.887 12.51h.002zm1.278 33.187h-5.613L110.22 9.752h5.507l-36.64 60.644zm32.508.622c-3.939 0-7.01-1.555-9.212-4.663-2.203-3.11-3.309-6.842-3.318-11.198 0-4.383 1.074-8.093 3.22-11.129 2.148-3.036 5.206-4.552 9.175-4.55 4.147 0 7.271 1.6 9.374 4.8 2.102 3.198 3.154 6.9 3.155 11.106 0 4.148-1.089 7.791-3.265 10.93-2.177 3.138-5.22 4.706-9.131 4.704h.002zm.066-3.554c2.541 0 4.439-1.094 5.694-3.282 1.255-2.187 1.882-4.981 1.882-8.382 0-3.64-.635-6.692-1.905-9.157s-3.249-3.7-5.936-3.703c-5.11 0-7.665 4.035-7.665 12.106-.001 8.28 2.641 12.418 7.928 12.418h.002z"/>
                <path fill="#3F3D56" fill-rule="nonzero" d="M77.694 40.674c-3.88 0-6.939-1.54-9.175-4.62-2.236-3.082-3.354-6.814-3.354-11.197 0-4.413 1.081-8.137 3.244-11.173 2.162-3.036 5.213-4.553 9.15-4.55 4.177 0 7.324 1.6 9.44 4.799 2.118 3.199 3.177 6.901 3.178 11.107 0 4.176-1.096 7.826-3.287 10.95-2.192 3.125-5.257 4.686-9.196 4.684zm.114-3.465c2.553 0 4.46-1.113 5.724-3.338 1.263-2.226 1.895-5.031 1.895-8.417 0-3.768-.646-6.854-1.94-9.257-1.292-2.403-3.275-3.605-5.948-3.605-5.08 0-7.62 4.035-7.62 12.106 0 8.341 2.629 12.511 7.887 12.51h.002zm1.278 33.187h-5.613L110.22 9.752h5.507l-36.64 60.644zm32.508.622c-3.939 0-7.01-1.555-9.212-4.663-2.203-3.11-3.309-6.842-3.318-11.198 0-4.383 1.074-8.093 3.22-11.129 2.148-3.036 5.206-4.552 9.175-4.55 4.147 0 7.271 1.6 9.374 4.8 2.102 3.198 3.154 6.9 3.155 11.106 0 4.148-1.089 7.791-3.265 10.93-2.177 3.138-5.22 4.706-9.131 4.704h.002zm.066-3.554c2.541 0 4.439-1.094 5.694-3.282 1.255-2.187 1.882-4.981 1.882-8.382 0-3.64-.635-6.692-1.905-9.157s-3.249-3.7-5.936-3.703c-5.11 0-7.665 4.035-7.665 12.106-.001 8.28 2.641 12.418 7.928 12.418h.002z"/>
                <path fill="#F3431C" fill-rule="nonzero" d="M77.694 40.674c-3.88 0-6.939-1.54-9.175-4.62-2.236-3.082-3.354-6.814-3.354-11.197 0-4.413 1.081-8.137 3.244-11.173 2.162-3.036 5.213-4.553 9.15-4.55 4.177 0 7.324 1.6 9.44 4.799 2.118 3.199 3.177 6.901 3.178 11.107 0 4.176-1.096 7.826-3.287 10.95-2.192 3.125-5.257 4.686-9.196 4.684zm.114-3.465c2.553 0 4.46-1.113 5.724-3.338 1.263-2.226 1.895-5.031 1.895-8.417 0-3.768-.646-6.854-1.94-9.257-1.292-2.403-3.275-3.605-5.948-3.605-5.08 0-7.62 4.035-7.62 12.106 0 8.341 2.629 12.511 7.887 12.51h.002zm1.278 33.187h-5.613L110.22 9.752h5.507l-36.64 60.644zm32.508.622c-3.939 0-7.01-1.555-9.212-4.663-2.203-3.11-3.309-6.842-3.318-11.198 0-4.383 1.074-8.093 3.22-11.129 2.148-3.036 5.206-4.552 9.175-4.55 4.147 0 7.271 1.6 9.374 4.8 2.102 3.198 3.154 6.9 3.155 11.106 0 4.148-1.089 7.791-3.265 10.93-2.177 3.138-5.22 4.706-9.131 4.704h.002zm.066-3.554c2.541 0 4.439-1.094 5.694-3.282 1.255-2.187 1.882-4.981 1.882-8.382 0-3.64-.635-6.692-1.905-9.157s-3.249-3.7-5.936-3.703c-5.11 0-7.665 4.035-7.665 12.106-.001 8.28 2.641 12.418 7.928 12.418h.002z"/>
                <path fill="#F3431C" fill-rule="nonzero" d="M74.168 40.674c-3.88 0-6.939-1.54-9.175-4.62-2.236-3.082-3.354-6.814-3.354-11.197 0-4.413 1.081-8.137 3.244-11.173 2.162-3.036 5.213-4.553 9.151-4.55 4.176 0 7.323 1.6 9.44 4.799 2.117 3.199 3.176 6.901 3.177 11.107 0 4.176-1.096 7.826-3.287 10.95-2.192 3.125-5.257 4.686-9.196 4.684zm.114-3.465c2.553 0 4.461-1.113 5.724-3.338 1.264-2.226 1.895-5.031 1.895-8.417 0-3.768-.646-6.854-1.94-9.257-1.292-2.403-3.275-3.605-5.947-3.605-5.08 0-7.62 4.035-7.62 12.106 0 8.341 2.628 12.511 7.886 12.51h.002zm1.278 33.187h-5.612l36.745-60.644h5.507L75.56 70.396zm32.508.622c-3.939 0-7.01-1.555-9.212-4.663-2.203-3.11-3.309-6.842-3.318-11.198 0-4.383 1.074-8.093 3.221-11.129 2.147-3.036 5.205-4.552 9.174-4.55 4.147 0 7.271 1.6 9.374 4.8 2.103 3.198 3.154 6.9 3.155 11.106 0 4.148-1.088 7.791-3.265 10.93-2.177 3.138-5.22 4.706-9.13 4.704h.001zm.066-3.554c2.541 0 4.439-1.094 5.694-3.282 1.255-2.187 1.882-4.981 1.882-8.382 0-3.64-.635-6.692-1.905-9.157s-3.25-3.7-5.938-3.703c-5.11 0-7.665 4.035-7.665 12.106 0 8.28 2.644 12.418 7.93 12.418h.002z"/>
                <path stroke="#3F3D56" stroke-width=".542" d="M86.447 71.917c.469-.869-.064-1.933-.675-2.709-.612-.775-1.358-1.58-1.343-2.57.023-1.417 1.53-2.256 2.73-3.009.893-.558 1.717-1.22 2.455-1.972.308-.29.564-.631.754-1.01.249-.555.24-1.186.227-1.793-.052-2.026-.152-4.05-.3-6.07"/>
                <path fill="#3F3D56" fill-rule="nonzero" d="M92.583 52.673c-.035-.753-.45-1.436-1.104-1.813l-.496.98.015-1.187c-.237-.069-.483-.098-.73-.087-1.22.057-2.164 1.093-2.107 2.314.058 1.221 1.094 2.165 2.315 2.108 1.22-.058 2.164-1.094 2.107-2.315zM88.637 67.657c-.48.93-1.544 1.398-2.552 1.121-1.009-.277-1.686-1.222-1.624-2.266.063-1.044.848-1.901 1.883-2.055 1.034-.155 2.035.437 2.4 1.418l-1.384 1.124 1.525-.354c-.001.352-.086.7-.248 1.012zM87.544 63.357c-.587.027-1.16-.18-1.594-.575-.434-.395-.694-.947-.721-1.533-.017-.347.048-.692.191-1.009.268-.598.787-1.048 1.417-1.227l-.012.91.501-.992c1.221-.057 2.258.886 2.315 2.108.057 1.22-.887 2.257-2.108 2.314l.01.004zM92.916 59.782c-.8.053-1.565-.33-2.002-1.002-.437-.672-.478-1.527-.105-2.237.372-.71 1.1-1.163 1.9-1.184.414-.02.825.077 1.186.28l-.392 1.072.806-.772c.432.394.69.943.717 1.527.01.205-.009.41-.057.61-.226.963-1.064 1.66-2.053 1.706z"/>
                <path fill="#000" fill-rule="nonzero" d="M92.285 53.264c-.51.055-1.006.215-1.52.246-.512.032-1.075-.09-1.4-.49-.175-.214-.261-.485-.409-.72-.14-.218-.33-.398-.557-.524-.388.766-.298 1.687.23 2.363.53.676 1.402.986 2.239.794.836-.191 1.487-.85 1.669-1.689-.085.005-.168.01-.252.02zM92.916 59.782c-.775.035-1.513-.338-1.944-.984-.43-.646-.492-1.471-.16-2.174.175.12.326.27.444.446.158.238.254.513.439.732.341.406.934.538 1.467.514.534-.024 1.05-.177 1.582-.228.074-.007.15-.011.228-.013-.226.964-1.066 1.662-2.056 1.707zM87.544 63.357c-.587.027-1.16-.18-1.594-.575-.434-.395-.694-.947-.721-1.533-.017-.347.048-.692.191-1.009.183.122.341.276.468.455.171.242.28.522.48.746.374.415 1.002.562 1.567.548.565-.013 1.076-.145 1.62-.187-.276.89-1.08 1.511-2.011 1.555zM88.637 67.657c-.535 1.051-1.8 1.498-2.877 1.016-1.077-.482-1.586-1.723-1.159-2.822.182.12.346.266.486.433.21.257.349.548.592.787.455.444 1.183.627 1.834.644.375.003.75-.016 1.124-.058z" opacity=".1"/>
                <path stroke="#3F3D56" stroke-width=".542" d="M120.682 71.804c.468-.87-.064-1.934-.676-2.71-.612-.775-1.358-1.58-1.342-2.569.023-1.418 1.529-2.256 2.73-3.01.893-.557 1.717-1.22 2.454-1.971.309-.29.564-.632.754-1.01.25-.555.241-1.187.228-1.794-.053-2.026-.153-4.049-.3-6.069"/>
                <path fill="#3F3D56" fill-rule="nonzero" d="M126.818 52.56c-.035-.754-.451-1.437-1.105-1.813l-.496.98.015-1.187c-.236-.07-.483-.1-.729-.088-1.22.057-2.164 1.093-2.107 2.314.057 1.221 1.093 2.165 2.314 2.108 1.221-.057 2.165-1.093 2.108-2.314zM122.871 67.543c-.479.93-1.543 1.398-2.552 1.121-1.009-.276-1.686-1.222-1.623-2.266.063-1.044.848-1.901 1.882-2.055 1.035-.154 2.036.437 2.4 1.418l-1.383 1.125 1.524-.355c0 .352-.086.7-.248 1.012zM121.778 63.243c-.586.027-1.16-.18-1.594-.575-.434-.395-.693-.946-.72-1.533-.018-.346.048-.692.19-1.009.268-.598.787-1.047 1.418-1.227l-.013.91.502-.992h.005c.79-.037 1.54.35 1.967 1.016.427.666.466 1.509.104 2.211-.363.703-1.074 1.158-1.864 1.195l.005.004zM127.15 59.668c-.799.053-1.565-.33-2.002-1.002-.437-.671-.477-1.527-.105-2.237.373-.71 1.1-1.162 1.9-1.184.415-.02.825.077 1.186.28l-.391 1.072.805-.772c.432.394.69.943.718 1.527.01.205-.01.41-.057.61-.226.964-1.064 1.66-2.053 1.706z"/>
                <path fill="#000" fill-rule="nonzero" d="M126.52 53.15c-.511.056-1.007.215-1.52.247-.513.032-1.076-.091-1.4-.49-.175-.214-.262-.486-.41-.72-.139-.219-.33-.399-.557-.525-.388.766-.298 1.687.231 2.363.53.677 1.401.986 2.238.795.837-.192 1.487-.85 1.669-1.69-.084.005-.167.01-.251.02zM127.15 59.668c-.775.035-1.512-.338-1.943-.984-.431-.646-.492-1.47-.161-2.173.175.119.326.27.444.446.158.237.254.513.44.73.34.407.933.539 1.467.515.533-.024 1.05-.176 1.582-.227.074-.007.149-.012.227-.014-.226.965-1.065 1.662-2.055 1.707zM121.778 63.243c-.586.027-1.16-.18-1.594-.575-.434-.395-.693-.946-.72-1.533-.018-.346.048-.692.19-1.009.183.122.342.276.468.455.172.243.28.522.481.746.373.416 1.001.562 1.566.549.548-.012 1.076-.146 1.621-.188-.277.89-1.08 1.512-2.012 1.555zM122.871 67.543c-.535 1.051-1.8 1.498-2.877 1.017-1.076-.482-1.586-1.724-1.158-2.823.182.12.346.266.485.433.21.257.35.549.593.787.455.444 1.183.627 1.833.644.376.003.751-.016 1.124-.058z" opacity=".1"/>
                <path stroke="#3F3D56" stroke-width=".542" d="M12.503 70.325c-.469-.869.064-1.933.676-2.71.611-.775 1.358-1.58 1.342-2.568-.023-1.419-1.529-2.257-2.73-3.01-.893-.558-1.717-1.22-2.454-1.972-.31-.29-.564-.632-.754-1.01-.25-.555-.242-1.186-.228-1.794.052-2.026.152-4.049.3-6.069"/>
                <path fill="#F3431C" fill-rule="nonzero" d="M6.367 51.081c.035-.753.451-1.437 1.104-1.813l.496.98-.015-1.187c.237-.069.483-.099.73-.088 1.22.058 2.164 1.094 2.107 2.315-.057 1.22-1.094 2.164-2.315 2.107-1.22-.057-2.164-1.093-2.107-2.314zM10.314 66.065c.478.93 1.543 1.397 2.551 1.12 1.01-.276 1.686-1.221 1.624-2.265-.063-1.044-.848-1.902-1.883-2.056-1.034-.154-2.035.438-2.4 1.418l1.384 1.125-1.524-.355c0 .353.085.7.248 1.013zM11.407 61.764c.586.028 1.16-.179 1.593-.574.434-.395.694-.947.721-1.533.017-.347-.048-.693-.191-1.01-.268-.598-.787-1.047-1.417-1.226l.012.91-.501-.992c-1.221-.057-2.258.886-2.315 2.107-.057 1.221.887 2.258 2.108 2.315l-.01.003zM6.034 58.19c.8.053 1.565-.33 2.002-1.002.438-.672.478-1.528.105-2.237-.372-.71-1.1-1.163-1.9-1.185-.412-.019-.82.079-1.18.281l.391 1.072-.81-.77c-.432.394-.69.942-.718 1.525-.01.205.009.41.057.61.226.963 1.064 1.66 2.053 1.706z"/>
                <path fill="#000" fill-rule="nonzero" d="M6.665 51.671c.51.056 1.006.215 1.52.247.512.032 1.075-.09 1.4-.49.175-.214.261-.486.409-.72.14-.218.331-.398.557-.524.388.766.298 1.687-.23 2.363-.53.676-1.402.986-2.238.794-.837-.192-1.488-.85-1.67-1.689.085.005.168.01.252.02zM6.034 58.19c.775.035 1.513-.339 1.944-.985.43-.646.492-1.47.16-2.173-.174.119-.325.27-.444.446-.158.238-.253.513-.439.731-.341.406-.934.538-1.467.514-.533-.023-1.05-.176-1.582-.227-.074-.007-.149-.011-.228-.014.226.965 1.066 1.662 2.056 1.708zM11.407 61.764c.586.028 1.16-.179 1.593-.574.434-.395.694-.947.721-1.533.017-.347-.048-.693-.191-1.01-.182.122-.341.277-.467.456-.172.242-.28.522-.482.746-.373.415-1 .562-1.566.548-.548-.011-1.076-.145-1.62-.188.276.89 1.08 1.512 2.012 1.555zM10.314 66.065c.534 1.05 1.8 1.498 2.876 1.016 1.077-.482 1.587-1.723 1.159-2.823-.182.12-.346.266-.486.434-.21.257-.349.548-.592.787-.455.443-1.183.627-1.834.644-.375.003-.75-.017-1.123-.058z" opacity=".1"/>
                <path fill="url(#prefix__c)" fill-rule="nonzero" d="M76.601 59.667c.004-.56-.256-1.087-.703-1.424-.027-1.043-.771-1.895-1.727-2.027-.15-.721-.675-1.307-1.374-1.538-.084-.026-.17-.046-.256-.06h-.025l-.045-.005H72.237c-.976 0-1.788.746-1.955 1.73-.631-.146-1.21.043-1.314.442-.026.106-.02.217.017.32.107.309.455.605.927.751l.062.018c.03.01.061.016.092.023h.02c-.36.769-.054 1.685.695 2.083-.014.007-.028.016-.04.026-.059.053-.106.118-.137.19-.114.201-.203.415-.264.637-.046.19-.054.389-.114.576-.103.342-.37.64-.4 1.004-.014.161.012.351-.103.461-.028.025-.059.047-.09.067-.081.055-.15.127-.2.21-.034.068-.08.13-.134.184-.103.078-.274.07-.325.191-.051.12.08.263.05.395-.025.107-.142.155-.227.227-.096.104-.163.23-.194.367-.344.067-.7-.024-.97-.246.046.117.08.238.1.362-.135-.144-.358-.186-.523-.261-.213-.098-.403-.239-.557-.414l.298-.041-1.32-2.002-.389-.08.35.67c-.058.028-.1.081-.114.144-.02.074-.024.151-.014.227.019.18.049.358.09.534l.101.47c.009.045.02.088.033.131-.132-.004-.264.01-.391.045-.262-.097-.534-.162-.811-.192-.061-.011-.124-.008-.183.009-.068.03-.126.079-.17.138-.228.263-.43.547-.604.849-.708 1.233-1.654 2.309-2.54 3.423-.612.25-1.229.486-1.846.72l-1.328.506c-.265.102-.54.205-.822.187-.127-.008-.282-.027-.354.08-.035.054-.062.112-.08.174-.047 0-.094.01-.137.013h-.008c-.084-.21-.157-.433-.318-.586-.066.01-.123.053-.15.114-.032.06-.052.124-.088.179-.072.104-.196.156-.284.244-.09.089-.145.228-.24.314-.134.097-.291.158-.455.176-.247.058-.484.149-.707.269-.082.05-.17.09-.261.12-.101.02-.204.023-.306.01l-.703-.05c-.063-.009-.126-.006-.188.007-.149.055-.242.203-.227.361.017.154.097.294.222.387.122.09.257.16.4.208.61.236 1.24.42 1.882.551v.143c.445.224.936.34 1.434.34.037.004.074-.003.107-.019.046-.034.078-.084.09-.14.15-.447.244-.91.281-1.378.088-.006.174-.028.254-.065.242-.066.482.1.731.128.307.033.593-.146.883-.256.042-.016.084-.03.126-.043-.083.107-.18.201-.29.28-.12.087-.256.15-.374.24-.099.09-.204.172-.315.245-.079.037-.16.068-.243.093-.12.044-.234.102-.34.172-.096.056-.177.134-.237.227-.062.089-.073.203-.03.302.043.099.134.168.241.183.095.017.192.02.288.008.38-.028.759-.064 1.137-.098.16-.01.32-.033.477-.068.083-.02.165-.048.248-.07.141-.037.287-.059.433-.064.043-.004.085 0 .126.012.09.029.152.114.241.137.059.005.118-.003.172-.024.277-.06.56-.09.844-.09.124-.007.27-.03.328-.146.07-.142-.048-.301-.095-.455-.023-.097-.036-.197-.038-.298-.022-.247-.093-.488-.21-.708-.062-.103-.114-.21-.155-.323.543-.207 1.063-.47 1.55-.787.28-.174.57-.362.886-.426.368-.074.748.024 1.111.129.864.25 1.714.546 2.547.888.398.163.796.336 1.203.455.119.16.263.301.426.416.273.177.607.228.927.253.434.04.869.056 1.304.049.332-.006.674-.029.971-.18.073-.037.14-.082.204-.134.227.04.46-.08.639-.237.236-.2.407-.468.489-.767.104-.411.024-.89.276-1.225.067-.09.155-.163.22-.254.082-.122.122-.267.115-.413l.011-.017c.057-.132.095-.271.114-.414.03-.111.068-.22.113-.326.129-.318.24-.641.335-.97.066-.219.117-.44.155-.666.027-.18.043-.36.058-.541.018-.283.073-.563.163-.832.225-.641.352-1.313.377-1.992v-.04c.684-.075 1.199-.658 1.188-1.347 0-.2-.041-.398-.123-.58.157-.276.239-.588.237-.905zm-6.432 7.815c.02.07.042.138.065.208-.105-.104-.208-.21-.314-.313.042.013.084.026.125.041.044.017.086.039.125.064zm-.51-.341c-.62-.54-1.34-.958-1.975-1.48.341.173.683.372 1.024.563.397.227.799.445 1.205.653-.066.1-.151.189-.25.259l-.003.005zm.266-1.358l.03-.031v.212c-.056-.018-.114-.036-.168-.056.05-.04.096-.084.139-.13l-.001.005zm-5.468 1.46c.256-.29.479-.606.664-.945.245.43.646.741.987 1.102-.548-.078-1.098-.138-1.65-.162v.005z"/>
                <path fill="#2F2E41" fill-rule="nonzero" d="M65.345 62L65.737 62.079 67.073 64.054 66.483 64.133z"/>
                <path fill="#FBBEBE" fill-rule="nonzero" d="M55.842 70.013c.106.35.236.692.39 1.024.443-.093.879-.217 1.304-.372-.083-.128-.173-.25-.271-.367-.105-.116-.23-.212-.369-.283-.135-.06-.302-.015-.447-.007-.202.007-.405.01-.607.005z"/>
                <path fill="#2F2E41" fill-rule="nonzero" d="M56.899 70.541c-.221-.07-.356-.292-.446-.507-.09-.215-.163-.45-.333-.607-.066.01-.123.053-.15.113-.034.057-.053.122-.09.177-.071.102-.196.152-.286.24-.09.087-.146.22-.242.308-.134.096-.291.157-.455.175-.248.056-.487.145-.712.264-.083.048-.172.086-.264.114-.102.019-.206.022-.308.01l-.709-.051c-.063-.008-.127-.005-.189.009-.148.051-.242.198-.227.355.019.153.101.291.227.38.124.089.26.158.403.205.617.232 1.253.414 1.9.543v.14c.449.222.943.339 1.445.341.039.003.078-.003.114-.02.046-.033.078-.082.09-.138.17-.497.27-1.016.295-1.54.013-.133.003-.267-.03-.396-.038-.127.094-.074-.029-.124"/>
                <path fill="#2F2E41" fill-rule="nonzero" d="M70.483 67.87c-2.1.128-4.175-.488-6.28-.554-.26-.016-.522 0-.78.05-.267.072-.527.172-.773.3-1.127.524-2.294.959-3.46 1.393l-1.337.498c-.269.1-.545.2-.83.184-.128-.008-.284-.028-.356.08-.218.321-.114.795.03 1.157.046.114.124.244.25.258.088-.006.175-.028.255-.065.244-.065.487.1.737.125.31.033.599-.143.89-.25.485-.18 1.015-.174 1.525-.26.855-.141 1.647-.538 2.388-.99.282-.173.569-.357.892-.42.372-.072.755.023 1.12.127.87.246 1.728.538 2.567.874.437.19.886.354 1.342.49.996.262 2.05.2 3.008-.176.34-.133.7-.367.72-.73.01-.207-.15-.389-.256-.569-.07-.113-.138-.227-.213-.335-.362-.528-.8-1.225-1.439-1.186z"/>
                <path fill="#000" fill-rule="nonzero" d="M70.483 67.87c-2.1.128-4.175-.488-6.28-.554-.26-.016-.522 0-.78.05-.267.072-.527.172-.773.3-1.127.524-2.294.959-3.46 1.393l-1.337.498c-.269.1-.545.2-.83.184-.128-.008-.284-.028-.356.08-.218.321-.114.795.03 1.157.046.114.124.244.25.258.088-.006.175-.028.255-.065.244-.065.487.1.737.125.31.033.599-.143.89-.25.485-.18 1.015-.174 1.525-.26.855-.141 1.647-.538 2.388-.99.282-.173.569-.357.892-.42.372-.072.755.023 1.12.127.87.246 1.728.538 2.567.874.437.19.886.354 1.342.49.996.262 2.05.2 3.008-.176.34-.133.7-.367.72-.73.01-.207-.15-.389-.256-.569-.07-.113-.138-.227-.213-.335-.362-.528-.8-1.225-1.439-1.186z" opacity=".1"/>
                <path fill="#FBBEBE" fill-rule="nonzero" d="M59.874 70.116c.329.111.66.214.994.31.188-.309.538-.523.618-.874.004-.016.004-.032 0-.047-.01-.015-.022-.027-.038-.034-.24-.132-.506-.21-.78-.228-.215-.013-.313.212-.41.37-.035.064-.296.532-.384.503z"/>
                <path fill="#2F2E41" fill-rule="nonzero" d="M60.337 69.89c-.199-.032-.374-.148-.484-.317-.046-.08-.095-.19-.188-.184-.094.006-.125.108-.145.193-.063.32-.154.632-.272.934-.119.304-.32.568-.58.763-.123.085-.258.148-.377.237-.1.089-.206.17-.319.241-.079.036-.16.067-.244.091-.123.043-.24.1-.35.17-.095.056-.177.134-.237.227-.06.096-.067.215-.02.318.049.084.132.142.227.16.096.017.193.019.29.008.383-.029.765-.063 1.147-.097.162-.01.323-.032.482-.066.084-.02.166-.048.249-.07.143-.036.29-.057.438-.063.042-.003.086 0 .127.012.089.029.151.114.242.135.059.006.118-.002.173-.023.28-.06.565-.089.85-.089.126-.007.274-.03.33-.143.072-.14-.046-.297-.094-.447-.023-.096-.037-.195-.04-.294-.021-.244-.093-.481-.21-.697-.098-.18-.227-.377-.163-.568.035-.06.057-.126.065-.195-.016-.308-.724-.194-.897-.235z"/>
                <path fill="#FBBEBE" fill-rule="nonzero" d="M67.334 64.502c-.372-.164-.67-.46-.837-.832-.034-.08-.064-.162-.097-.243-.11-.267-.282-.504-.5-.694-.048-.052-.115-.08-.186-.078-.068.02-.12.076-.136.145-.02.075-.025.152-.015.228.02.176.05.351.091.524l.102.464c.013.071.035.141.064.207.044.078.102.147.17.204.094.086.188.17.284.25.052.048.11.09.172.125.1.048.208.08.32.093.417.078.84.19 1.192.455 0 0 0-.31-.008-.34-.004-.09-.035-.178-.088-.25-.132-.142-.36-.184-.528-.258z"/>
                <path fill="#000" fill-rule="nonzero" d="M67.334 64.502c-.372-.164-.67-.46-.837-.832-.034-.08-.064-.162-.097-.243-.11-.267-.282-.504-.5-.694-.048-.052-.115-.08-.186-.078-.068.02-.12.076-.136.145-.02.075-.025.152-.015.228.02.176.05.351.091.524l.102.464c.013.071.035.141.064.207.044.078.102.147.17.204.094.086.188.17.284.25.052.048.11.09.172.125.1.048.208.08.32.093.417.078.84.19 1.192.455 0 0 0-.31-.008-.34-.004-.09-.035-.178-.088-.25-.132-.142-.36-.184-.528-.258z" opacity=".1"/>
                <circle cx="71.61" cy="60.439" r="1" fill="#2F2E41" fill-rule="nonzero"/>
                <path fill="#2F2E41" fill-rule="nonzero" d="M71.294 60.129c-.137-.032-.28-.01-.404.058-.059.052-.106.116-.137.189-.115.196-.205.406-.266.625-.046.188-.054.383-.114.569-.105.34-.373.631-.404.987-.014.16.013.347-.103.455-.03.024-.06.046-.093.065-.08.054-.149.124-.2.207-.036.074-.084.14-.143.196-.105.078-.276.07-.328.19-.05.119.081.257.05.387-.025.106-.143.155-.227.228-.096.101-.163.226-.194.362-.346.066-.703-.024-.977-.244.142.351.145.74.15 1.118.017.121-.015.244-.089.341.407.01.803.114 1.2.208.17.057.353.057.523 0 .09-.049.172-.113.24-.19.216-.22.442-.456.495-.762.014-.172.017-.345.009-.517.02-.213.065-.423.13-.627.115-.423.191-.855.228-1.29.024-.27.256-.486.379-.728.227-.455.466-.927.484-1.436.016-.166-.04-.37-.209-.391z"/>
                <path fill="#000" fill-rule="nonzero" d="M71.294 60.129c-.137-.032-.28-.01-.404.058-.059.052-.106.116-.137.189-.115.196-.205.406-.266.625-.046.188-.054.383-.114.569-.105.34-.373.631-.404.987-.014.16.013.347-.103.455-.03.024-.06.046-.093.065-.08.054-.149.124-.2.207-.036.074-.084.14-.143.196-.105.078-.276.07-.328.19-.05.119.081.257.05.387-.025.106-.143.155-.227.228-.096.101-.163.226-.194.362-.346.066-.703-.024-.977-.244.142.351.145.74.15 1.118.017.121-.015.244-.089.341.407.01.803.114 1.2.208.17.057.353.057.523 0 .09-.049.172-.113.24-.19.216-.22.442-.456.495-.762.014-.172.017-.345.009-.517.02-.213.065-.423.13-.627.115-.423.191-.855.228-1.29.024-.27.256-.486.379-.728.227-.455.466-.927.484-1.436.016-.166-.04-.37-.209-.391z" opacity=".1"/>
                <path fill="#2F2E41" fill-rule="nonzero" d="M70.816 68.313c-.437-.208-.757-.596-1.11-.928-.676-.635-1.502-1.083-2.212-1.678-.47-.393-.89-.851-1.408-1.181-.455-.29-.971-.472-1.508-.53-.061-.01-.124-.007-.184.01-.068.03-.127.077-.172.136-.23.259-.433.539-.608.836-.9 1.527-2.177 2.81-3.236 4.231-.07.07-.076.182-.013.257l.215.422c.12.236.314.511.569.464.117-.033.221-.1.301-.192l.967-.924 1.013-.97c.594-.568 1.198-1.148 1.586-1.874.302.524.84.868 1.208 1.349.14.182.253.383.379.577.2.31.428.601.656.891l1.163 1.485c.147.211.33.396.538.546.276.174.611.22.935.249.437.04.875.055 1.314.047.334-.005.682-.027.978-.176.296-.149.547-.455.531-.788-.018-.175-.075-.343-.167-.493-.41-.762-.954-1.399-1.735-1.766z"/>
                <circle cx="71.924" cy="60.795" r="1" fill="#E8E8F0" fill-rule="nonzero"/>
                <path fill="#FBBEBE" fill-rule="nonzero" d="M71.838 60.498c.088.177.104.381.043.569-.06.185-.146.36-.252.523-.093.168-.203.325-.33.469.607.03 1.195-.208 1.73-.497.43-.228.86-.518 1.09-.951-.138.033-.284.006-.401-.074-.116-.08-.22-.177-.308-.287l-.304-.34c-.072-.076-.135-.158-.188-.248-.066-.12-.094-.26-.08-.397-.121.127-.256.24-.403.335-.217.142-.455.244-.675.384-.077.05-.249.131-.204.228.044.096.22.177.282.286z"/>
                <path fill="#000" fill-rule="nonzero" d="M71.838 60.498c.088.177.104.381.043.569-.06.185-.146.36-.252.523-.093.168-.203.325-.33.469.607.03 1.195-.208 1.73-.497.43-.228.86-.518 1.09-.951-.138.033-.284.006-.401-.074-.116-.08-.22-.177-.308-.287l-.304-.34c-.072-.076-.135-.158-.188-.248-.066-.12-.094-.26-.08-.397-.121.127-.256.24-.403.335-.217.142-.455.244-.675.384-.077.05-.249.131-.204.228.044.096.22.177.282.286z" opacity=".1"/>
                <path fill="#E8E8F0" fill-rule="nonzero" d="M71.846 60.557c-.126.178-.126.415 0 .593.017.022.082.157.113.158.027-.002.052-.015.07-.035.137-.144.266-.296.384-.455.12-.162.293-.275.49-.32.237-.038.466.088.674.208.09.045.167.11.227.19.044.078.07.166.076.256.06.543.083 1.088.069 1.634.01.393-.015.786-.078 1.174-.038.2-.096.396-.124.599-.02.178-.027.357-.023.537v.75c-.005.138.004.275.03.41.046.162.101.321.164.477.055.186.093.376.114.569l.102.777c.033.245.057.513-.092.71-.066.09-.155.16-.227.249-.256.325-.171.797-.285 1.2-.084.297-.256.56-.493.757-.181.154-.416.275-.65.227-.315-.059-.505-.387-.591-.698-.087-.31-.114-.65-.304-.91-.152-.215-.388-.349-.6-.502-.213-.154-.422-.35-.47-.61-.02-.114-.007-.228-.018-.341-.035-.296-.228-.548-.503-.66-.162-.063-.362-.085-.455-.227.231-.146.4-.373.473-.636.07-.26.109-.527.114-.796l.054-.903c.024-.404.036-.805.213-1.167.08-.162.179-.314.26-.475.11-.225.204-.457.28-.696.129-.37.259-.74.373-1.114.046-.182.115-.356.205-.52.106-.17.246-.375.428-.41z"/>
                <path fill="#2F2E41" fill-rule="nonzero" d="M69.84 66.425l.24.008.05-.36c.007-.073.024-.143.05-.21.04-.072.086-.14.138-.202.236-.332.219-.774.277-1.177.077-.538.302-1.043.525-1.54l.464-1.033c.041-.085.075-.174.1-.265.02-.1.029-.203.028-.306 0-.16.052-.74.055-.9 0-.06-.13-.027-.157-.08-.058-.113-.137.196-.246.265-.103.078-.178.188-.214.312-.1.26-.162.535-.255.797-.082.267-.231.51-.433.704-.095.084-.205.15-.295.238-.289.286-.316.736-.326 1.138-.007.249-.054 2.611 0 2.611zM73.281 60.126c-.227.091-.36.342-.424.585-.065.243-.092.5-.217.717-.292.507-1.034.655-1.24 1.203-.053.185-.08.376-.083.569-.037.392-.166.772-.205 1.164-.02.305-.013.612.022.916l.26 3.097c.05.456.024.917-.078 1.365.267.038.54-.007.78-.129.245-.114.467-.264.702-.393.403-.228.85-.381 1.202-.683.064-.05.119-.11.163-.178.056-.13.094-.268.113-.409.03-.11.068-.216.114-.32.13-.313.245-.632.341-.956.066-.215.119-.434.156-.656.028-.176.043-.355.06-.532.017-.28.073-.555.164-.82.226-.63.353-1.292.379-1.961.008-.097.001-.194-.02-.29-.039-.114-.091-.224-.156-.327-.108-.203-.173-.427-.276-.633-.227-.466-.635-.82-1.062-1.117-.218-.144-.458-.301-.695-.212z"/>
                <path fill="#FBBEBE" fill-rule="nonzero" d="M67.851 65.18c-.184-.097-.352-.224-.494-.376-.065-.076-.114-.161-.185-.236-.167-.178-.383-.302-.622-.355-.236-.052-.479-.076-.72-.07-.163-.01-.325.01-.48.059-.157.051-.278.18-.318.34-.035.194.09.382.242.505.14.115.306.195.483.235.145.025.29.042.437.051.86.09 1.628.558 2.38.984.663.374 1.337.724 2.025 1.05.027-.206.039-.414.034-.621 0-.155-.011-.391-.158-.482-.17-.107-.455-.131-.644-.195-.443-.145-.876-.32-1.295-.523-.238-.115-.465-.237-.685-.366z"/>
                <ellipse cx="71.61" cy="58.781" fill="#FBBEBE" fill-rule="nonzero" rx="1.532" ry="1.541"/>
                <path fill="#2F2E41" fill-rule="nonzero" d="M73.719 61.873c-.122.172-.222.358-.297.554-.19.39-.487.725-.635 1.138-.156.428-.15.94-.454 1.277-.061.051-.107.118-.134.193-.001.047-.007.094-.015.14-.044.123-.245.129-.283.254-.01.036 0 .076-.018.114-.03.08-.136.092-.208.14-.149.102-.114.336-.227.482-.094.11-.24.16-.382.134-.14-.03-.274-.08-.399-.15-.043-.024-.092-.039-.142-.043-.06 0-.117.02-.165.055-.283.18-.416.537-.414.874.02.336.1.667.236.976.016.053.043.102.078.145.094.1.257.083.382.027.118-.069.242-.125.372-.166.237-.043.469.121.709.107.176-.026.34-.1.479-.211.243-.148.461-.334.646-.552.104-.137.182-.294.274-.441.118-.18.247-.353.387-.517l.883-1.081c.089-.103.169-.213.238-.329.08-.157.142-.323.185-.493.095-.285.157-.58.184-.88.004-.247-.018-.495-.065-.738-.03-.242-.094-.478-.19-.702-.197-.398-.664-.727-1.025-.307z"/>
                <path fill="#F86D70" fill-rule="nonzero" d="M76.797 59.866c.002-.554-.262-1.076-.71-1.402-.014-1.002-.75-1.847-1.741-1.996-.192-.949-1.038-1.622-2.005-1.596-.967.026-1.776.744-1.916 1.701-.637-.143-1.22.044-1.325.436-.114.41.341.89 1.015 1.072.21.06.43.082.65.065.316.465.814.775 1.37.853.166.757.745 1.355 1.496 1.544.102.246.26.465.462.639 0 .048-.008.097-.008.147-.02.476.223.925.632 1.169.41.244.92.244 1.33 0 .409-.244.651-.693.631-1.17 0-.196-.042-.39-.124-.568.16-.27.244-.58.243-.894z"/>
                <path fill="#000" fill-rule="nonzero" d="M69.532 57.087c.106-.392.683-.579 1.325-.435.155-.973.987-1.693 1.971-1.706h.132c-.184-.056-.376-.085-.568-.084-.985.013-1.817.733-1.971 1.706-.637-.144-1.22.043-1.325.435-.114.41.34.89 1.014 1.073.125.034.254.057.383.066-.639-.187-1.069-.653-.96-1.055zM74.517 61.408c0-.05 0-.099.008-.148-.201-.173-.36-.392-.461-.638-.75-.19-1.33-.788-1.496-1.544-.557-.078-1.055-.388-1.372-.853-.127.01-.255.006-.382-.01.318.428.794.71 1.322.784.165.757.744 1.355 1.495 1.544.102.246.26.465.462.639 0 .048-.008.097-.008.147-.012.725.564 1.325 1.29 1.342-.521-.201-.863-.704-.858-1.263z" opacity=".1"/>
                <circle cx="72.121" cy="59.095" r="1" fill="#FBBEBE" fill-rule="nonzero" transform="rotate(-37.22 72.12 59.095)"/>
                <path fill="#F3431C" fill-rule="nonzero" d="M35.69 67.014l1.515-.89c-.204-.35-.466-.664-.774-.927l-2.857.888 2.238-1.316c-1.128-.617-2.497-.594-3.604.061-1.106.656-1.784 1.846-1.784 3.132 0 2.01 1.63 2.079 3.64 2.079 2.01 0 3.64-.07 3.64-2.08 0-.509-.106-1.013-.313-1.478l-1.7.531z"/>
                <path fill="#000" fill-rule="nonzero" d="M36.076 68.968c-.161-.161-.342-.303-.537-.422-.274-.183-.56-.37-.884-.43-.284-.055-.577-.009-.868-.026-.503-.03-.977-.248-1.33-.61-.206-.213-.369-.476-.618-.64-.278-.165-.607-.225-.926-.17-.092.014-.184.032-.274.057-.142.396-.215.814-.215 1.235 0 2.01 1.63 2.079 3.64 2.079.976 0 1.86-.016 2.515-.263l-.114-.204c-.103-.217-.234-.421-.39-.606z" opacity=".1"/>
            </g>
        </g>
    </g>
</svg>
