<?xml version="1.0" encoding="utf-8"?>
<!-- Generator: Adobe Illustrator 23.0.6, SVG Export Plug-In . SVG Version: 6.00 Build 0)  -->
<svg version="1.1" xmlns="http://www.w3.org/2000/svg" xmlns:xlink="http://www.w3.org/1999/xlink" x="0px" y="0px"
	 viewBox="0 0 750 500" style="enable-background:new 0 0 750 500;" xml:space="preserve">
<style type="text/css">
	.st0{display:none;}
	.st1{display:inline;fill:#F5F5F5;}
	.st2{opacity:0.8;enable-background:new    ;}
	.st3{fill:#F2F2F2;}
	.st4{fill-rule:evenodd;clip-rule:evenodd;fill:#EBEBEB;}
	.st5{fill-rule:evenodd;clip-rule:evenodd;fill:#F5F5F5;}
	.st6{fill-rule:evenodd;clip-rule:evenodd;fill:#E0E0E0;}
	.st7{fill:#E0E0E0;}
	.st8{fill:#263238;}
	.st9{fill:#F3431C;}
	.st10{fill:#FFFFFF;}
	.st11{fill:#2F2E41;}
	.st12{opacity:0.6;}
	.st13{opacity:0.3;}
	.st14{fill:#455A64;}
	.st15{opacity:0.4;}
	.st16{fill:#FFBE9D;}
	.st17{fill:#EB996E;}
	.st18{fill:#FAFAFA;}
	.st19{opacity:0.5;}
	.st20{fill:#B78876;}
	.st21{fill:#AA6550;}
	.st22{fill:#E8505B;}
	.st23{fill:#3F3D56;}
	.st24{filter:url(#Adobe_OpacityMaskFilter);}
	.st25{fill-rule:evenodd;clip-rule:evenodd;fill:#FFFFFF;}
	.st26{mask:url(#prefix__b_1_);}
	.st27{opacity:0.1;fill-rule:evenodd;clip-rule:evenodd;fill:#F3431C;enable-background:new    ;}
	.st28{fill-rule:evenodd;clip-rule:evenodd;fill:#F3431C;}
	.st29{fill:#FF6584;}
	.st30{fill:#CCCCCC;}
	.st31{opacity:0.1;enable-background:new    ;}
	.st32{fill:#A0616A;}
	.st33{fill:#CFCCDF;}
</style>
<g id="Background_Complete">
</g>
<g id="Background_Simple" class="st0">
	<path class="st1" d="M607.6,82.1C578.7,46.7,528.1,32.2,483.8,43c-44.4,10.8-81.5,44.6-100.4,86.2c-7.9,17.3-13.6,36.9-28.8,48.3
		c-12.2,9.2-28.3,11.3-43.6,10.6c-15.2-0.7-30.4-3.8-45.6-3.7c-40.1,0.3-79,24.9-96.5,61c-2.2,4.5-4,9.2-5.5,13.9
		C150,302.1,153.4,352,189.9,378l15.8,11.5c62.1,37.6,108.1,35.7,137.4,39.5c29.3,3.8,92.7,4,120.3-6.5
		c76.7-29.1,97.7-58.6,134.2-106c26.4-34.4,41.1-84.2,41.2-127.6C638.9,151.1,631.5,111.5,607.6,82.1z"/>
</g>
<g id="Floor">
</g>
<g id="List">
</g>
<g id="Character_2">
</g>
<g id="Character_1">
</g>
<g id="Plant">
	<g class="st2">
		<g>
			<g>
				<g>
					<path class="st3" d="M118.1,202.8h-3.4l-7.5-10.4v-6.8c0,0-5.3-0.3-4.7,8.6c0.6,8.9-0.1,6.7-0.1,6.7s-11.2,0-12.2,1
						c-0.7,0.7-1,11.9-1.1,17.9c-0.1,3,1.8,5.9,4.6,6.6c0.4,0.1,0.8,0.2,1.2,0.2c2.8,0,17.1-2.3,17.1-2.3h5.9V202.8z"/>
				</g>
			</g>
			<g>
				<g>
					<polygon class="st3" points="127.9,200.9 125.8,224.3 119.9,224.3 119.9,201.4 					"/>
				</g>
			</g>
		</g>
	</g>
	<g class="st2">
		<g>
			<g>
				<path class="st3" d="M664.9,146.6c-0.1,0,0-1.9-0.8-5.1c-0.4-1.6-1.2-3.5-2.4-5.6c-1.2-2-3-4.1-5.3-5.9
					c-2.4-1.8-5.3-3.3-8.8-3.9c-3.4-0.6-7.3-0.5-10.9,0.9c-1.8,0.6-3.6,1.6-5.2,2.8c-1.6,1.2-3.1,2.7-4.4,4.4c-2.6,3.4-4,7.8-4,12.3
					c0,4.5,1.5,8.9,4,12.3c1.2,1.7,2.7,3.2,4.4,4.4c1.6,1.2,3.4,2.2,5.2,2.8c3.7,1.4,7.5,1.5,10.9,0.9c3.4-0.6,6.4-2.1,8.8-3.9
					c2.4-1.8,4.1-3.9,5.3-5.9c1.2-2,2-3.9,2.4-5.6C664.9,148.5,664.7,146.6,664.9,146.6c0,0,0,0.1,0,0.3c0,0.3,0,0.6,0,1
					c0,0.4,0,1-0.1,1.6c-0.1,0.6-0.2,1.4-0.4,2.2c-0.3,1.7-1.1,3.6-2.3,5.7c-1.2,2.1-3,4.2-5.4,6.1c-2.4,1.8-5.4,3.4-9,4
					c-3.5,0.6-7.5,0.5-11.3-0.9c-1.9-0.7-3.7-1.6-5.4-2.9c-1.7-1.2-3.3-2.8-4.5-4.5c-2.6-3.5-4.1-8-4.2-12.7c0-4.7,1.5-9.2,4.2-12.7
					c1.3-1.8,2.8-3.3,4.5-4.5c1.7-1.3,3.5-2.2,5.4-2.9c3.8-1.4,7.7-1.5,11.3-0.9c3.5,0.6,6.6,2.2,9,4c2.4,1.9,4.2,4,5.4,6.1
					c1.2,2.1,1.9,4,2.3,5.7c0.2,0.8,0.3,1.6,0.4,2.2c0.1,0.6,0.1,1.2,0.1,1.6c0,0.4,0,0.7,0,1C664.9,146.5,664.9,146.6,664.9,146.6z
					"/>
			</g>
		</g>
		<g>
			<g>
				<path class="st3" d="M693.2,181.8c-0.1,0.2-7.6-4.6-16.7-10.7c-9.1-6.1-16.4-11.2-16.3-11.4c0.1-0.2,7.6,4.6,16.7,10.7
					C686,176.6,693.3,181.7,693.2,181.8z"/>
			</g>
		</g>
	</g>
	<g>
		<g>
			<g>
				<rect x="146.5" y="365.9" class="st4" width="85.3" height="110"/>
			</g>
			<g>
				<rect x="118.4" y="365.9" class="st5" width="85.3" height="110"/>
			</g>
		</g>
		<g>
			<g>
				<path class="st6" d="M135.9,376.5v-4.8h-8.1v4.8c0,2,1.5,3.7,3.5,4l0,4.2h-1.8c-0.6,0-1.1,0.4-1.1,0.8h6.9
					c0-0.4-0.5-0.8-1.1-0.8h-1.8v-4.2C134.3,380.3,135.9,378.6,135.9,376.5z"/>
			</g>
			<g>
				<path class="st6" d="M151.3,376.2c-0.6-2.5-2.9-4.5-5.7-4.5h0c-2.7,0-5,1.9-5.7,4.5h5.1v7.5c0,0.6-0.5,1-1.1,1
					c-0.6,0-1.1-0.5-1.1-1h-1.1c0,1.2,1,2.1,2.2,2.1c1.2,0,2.2-0.9,2.2-2.1v-7.5H151.3z"/>
			</g>
		</g>
		<g>
			<g>
				<path class="st7" d="M232.1,418.5c0,0.1-25.6,0.3-57.2,0.3c-31.6,0-57.2-0.1-57.2-0.3c0-0.1,25.6-0.3,57.2-0.3
					C206.5,418.3,232.1,418.4,232.1,418.5z"/>
			</g>
		</g>
		<g>
			<g>
				<path class="st7" d="M161.1,476.4c-0.1,0-0.3-24.8-0.3-55.3c0-30.6,0.1-55.3,0.3-55.3c0.1,0,0.3,24.8,0.3,55.3
					C161.4,451.6,161.3,476.4,161.1,476.4z"/>
			</g>
		</g>
	</g>
	<g>
		<g>
			<g>
				<g>
					<rect x="570" y="311.6" class="st4" width="85.3" height="110"/>
				</g>
				<g>
					<rect x="541.9" y="311.6" class="st5" width="85.3" height="110"/>
				</g>
			</g>
			<g>
				<g>
					<path class="st6" d="M559.4,322.2v-4.8h-8.1v4.8c0,2,1.5,3.7,3.5,4l0,4.2H553c-0.6,0-1.1,0.4-1.1,0.8h6.9
						c0-0.4-0.5-0.8-1.1-0.8h-1.8v-4.2C557.8,325.9,559.4,324.3,559.4,322.2z"/>
				</g>
				<g>
					<path class="st6" d="M574.8,321.9c-0.6-2.5-2.9-4.5-5.7-4.5h0c-2.7,0-5,1.9-5.7,4.5h5.1v7.5c0,0.6-0.5,1-1.1,1
						c-0.6,0-1.1-0.5-1.1-1h-1.1c0,1.2,1,2.1,2.2,2.1c1.2,0,2.2-0.9,2.2-2.1v-7.5H574.8z"/>
				</g>
			</g>
			<g>
				<g>
					<path class="st7" d="M655.6,364.2c0,0.1-25.6,0.3-57.2,0.3c-31.6,0-57.2-0.1-57.2-0.3s25.6-0.3,57.2-0.3
						C629.9,364,655.6,364.1,655.6,364.2z"/>
				</g>
			</g>
			<g>
				<g>
					<path class="st7" d="M584.6,422.1c-0.1,0-0.3-24.8-0.3-55.3c0-30.6,0.1-55.3,0.3-55.3s0.3,24.8,0.3,55.3
						C584.9,397.3,584.7,422.1,584.6,422.1z"/>
				</g>
			</g>
		</g>
		<g>
			<g>
				<g>
					<rect x="485.3" y="349.5" class="st4" width="71.7" height="71.7"/>
				</g>
			</g>
			<g>
				<rect x="456.9" y="349.5" class="st5" width="71.7" height="71.7"/>
			</g>
			<g>
				<polygon class="st6" points="476.3,361.6 478.3,361.6 476.6,358.4 474.8,355.2 473.1,358.4 471.3,361.6 473.3,361.6 
					473.3,369.7 468.3,369.7 468.3,361.6 470.4,361.6 468.6,358.4 466.8,355.2 465.1,358.4 463.3,361.6 465.4,361.6 465.4,369.7 
					464.2,369.7 464.2,370.9 477.5,370.9 477.5,369.7 476.3,369.7 				"/>
			</g>
			<g>
				<g>
					<path class="st7" d="M493.6,421.1c-0.1,0-0.3-15.9-0.3-35.5c0-19.6,0.1-35.5,0.3-35.5c0.1,0,0.3,15.9,0.3,35.5
						C493.8,405.2,493.7,421.1,493.6,421.1z"/>
				</g>
			</g>
			<g>
				<g>
					<path class="st7" d="M557.7,385.3c0,0.1-22.7,0.3-50.7,0.3c-28,0-50.7-0.1-50.7-0.3c0-0.1,22.7-0.3,50.7-0.3
						C535,385,557.7,385.1,557.7,385.3z"/>
				</g>
			</g>
		</g>
		<g>
			<g>
				<path class="st6" d="M689,476.9H264.2c-15.4,0-27.9-12.5-27.9-27.9l0,0c0-15.4,12.5-27.9,27.9-27.9H689
					c15.4,0,27.9,12.5,27.9,27.9l0,0C717,464.4,704.5,476.9,689,476.9z"/>
			</g>
			<g>
				<path class="st4" d="M691.6,464.8H264.4c-8.7,0-15.8-7.1-15.8-15.8l0,0c0-8.7,7.1-15.8,15.8-15.8h427.2
					c8.7,0,15.8,7.1,15.8,15.8l0,0C707.4,457.7,700.3,464.8,691.6,464.8z"/>
			</g>
			<g>
				<g>
					<g>
						<path class="st7" d="M279.4,449c-0.1,0,0-1.2-0.5-3.2c-0.5-2-1.8-4.8-4.7-7c-1.5-1.1-3.3-2-5.4-2.4c-2.1-0.4-4.5-0.3-6.7,0.6
							c-1.1,0.4-2.2,1-3.2,1.7c-1,0.7-1.9,1.7-2.7,2.7c-1.6,2.1-2.5,4.8-2.5,7.5c0,2.8,0.9,5.4,2.5,7.5c0.8,1.1,1.7,2,2.7,2.7
							c1,0.8,2.1,1.3,3.2,1.7c2.2,0.9,4.6,0.9,6.7,0.6c2.1-0.4,3.9-1.3,5.4-2.4c2.9-2.2,4.2-5.1,4.7-7
							C279.4,450.1,279.4,449,279.4,449c0,0,0,0.3,0,0.8c0,0.3,0,0.6-0.1,1c-0.1,0.4-0.1,0.9-0.2,1.4c-0.4,2-1.7,5-4.7,7.3
							c-1.5,1.1-3.4,2.1-5.5,2.5c-2.2,0.4-4.6,0.3-7-0.5c-1.2-0.4-2.3-1-3.4-1.8c-1.1-0.8-2-1.7-2.8-2.8c-1.6-2.2-2.6-5-2.6-7.8
							c0-2.9,1-5.7,2.6-7.8c0.8-1.1,1.8-2,2.8-2.8c1-0.8,2.2-1.4,3.4-1.8c2.3-0.9,4.8-0.9,7-0.5c2.2,0.4,4.1,1.4,5.5,2.5
							c3,2.3,4.3,5.3,4.7,7.3c0.1,0.5,0.2,1,0.2,1.4c0.1,0.4,0.1,0.7,0.1,1C279.5,448.7,279.4,449,279.4,449z"/>
					</g>
				</g>
				<g>
					<circle class="st6" cx="266.4" cy="449" r="4.7"/>
				</g>
			</g>
			<g>
				<g>
					<g>
						<path class="st7" d="M703.4,449c-0.1,0,0-1.2-0.5-3.2c-0.5-2-1.8-4.8-4.7-7c-1.5-1.1-3.3-2-5.4-2.4c-2.1-0.4-4.5-0.3-6.7,0.6
							c-1.1,0.4-2.2,1-3.2,1.7c-1,0.7-1.9,1.7-2.7,2.7c-1.6,2.1-2.5,4.8-2.5,7.5c0,2.8,0.9,5.4,2.5,7.5c0.8,1.1,1.7,2,2.7,2.7
							c1,0.8,2.1,1.3,3.2,1.7c2.2,0.9,4.6,0.9,6.7,0.6c2.1-0.4,3.9-1.3,5.4-2.4c2.9-2.2,4.2-5.1,4.7-7
							C703.4,450.1,703.4,449,703.4,449c0,0,0,0.3,0,0.8c0,0.3,0,0.6-0.1,1c-0.1,0.4-0.1,0.9-0.2,1.4c-0.4,2-1.7,5-4.7,7.3
							c-1.5,1.1-3.4,2.1-5.5,2.5c-2.2,0.4-4.6,0.3-7-0.5c-1.2-0.4-2.3-1-3.4-1.8c-1.1-0.8-2-1.7-2.8-2.8c-1.6-2.2-2.6-5-2.6-7.8
							c0-2.9,1-5.7,2.6-7.8c0.8-1.1,1.8-2,2.8-2.8c1-0.8,2.2-1.4,3.4-1.8c2.3-0.9,4.8-0.9,7-0.5c2.2,0.4,4.1,1.4,5.5,2.5
							c3,2.3,4.3,5.3,4.7,7.3c0.1,0.5,0.2,1,0.2,1.4c0.1,0.4,0.1,0.7,0.1,1C703.5,448.7,703.5,449,703.4,449z"/>
					</g>
				</g>
				<g>
					<circle class="st6" cx="690.4" cy="449" r="4.7"/>
				</g>
			</g>
			<g>
				<g>
					<path class="st7" d="M691.6,435.8c0,0.1-95.2,0.3-212.6,0.3c-117.4,0-212.6-0.1-212.6-0.3c0-0.1,95.2-0.3,212.6-0.3
						C596.4,435.6,691.6,435.7,691.6,435.8z"/>
				</g>
			</g>
			<g>
				<g>
					<path class="st7" d="M691.6,462c0,0.1-94.8,0.3-211.7,0.3c-117,0-211.7-0.1-211.7-0.3s94.8-0.3,211.7-0.3
						C596.8,461.7,691.6,461.8,691.6,462z"/>
				</g>
			</g>
		</g>
	</g>
	<g>
		<g>
			<path class="st8" d="M712.2,477.4c0,0.1-151,0.3-337.2,0.3c-186.3,0-337.2-0.1-337.2-0.3c0-0.1,150.9-0.3,337.2-0.3
				C561.2,477.2,712.2,477.3,712.2,477.4z"/>
		</g>
	</g>
	<g>
		<path class="st9" d="M359.5,350.3H168c-3.5,0-6.4-2.8-6.4-6.4V74c0-3.5,2.8-6.4,6.4-6.4h191.5c3.5,0,6.4,2.8,6.4,6.4v270
			C365.9,347.5,363,350.3,359.5,350.3z"/>
	</g>
	<g>
		<rect x="176" y="82.7" class="st7" width="175.6" height="257.7"/>
	</g>
	<g class="st2">
		<rect x="173.6" y="80.7" class="st3" width="175.6" height="252.8"/>
	</g>
	<g>
		<g>
			<path class="st8" d="M349.1,333.5c0-2.1-0.1-103.6-0.2-252.8l0.2,0.2c-53.2,0-112.8,0-175.5,0h0l0.3-0.3
				c0,94.9,0,182.6-0.1,252.8l-0.2-0.2C280.3,333.4,347.4,333.5,349.1,333.5c-1.7,0-68.8,0.1-175.6,0.2l-0.2,0v-0.2
				c0-70.2,0-157.9-0.1-252.8l0-0.3h0.3h0c62.7,0,122.3,0,175.5,0h0.2l0,0.2C349.2,229.8,349.1,331.3,349.1,333.5z"/>
		</g>
	</g>
	<g>
		<g>
			<path class="st7" d="M286.9,333.5c0,0,45.1-17.2,61.9-45.7c0,0-15,11.8-36,7.5C312.7,295.3,300.7,327.2,286.9,333.5z"/>
		</g>
		<g>
			<g>
				<path class="st8" d="M286.9,333.5c0.2-0.1,0.4-0.2,0.7-0.4c0.5-0.3,1.2-0.7,2.2-1.4c1.8-1.3,4.2-3.5,6.8-6.8
					c5.1-6.5,10.9-16.8,15.9-29.7l0.1-0.2l0.2,0c5.1,1,10.6,1.2,16.3,0.3c1.4-0.2,2.8-0.6,4.3-0.9c1.4-0.4,2.8-0.8,4.2-1.3
					c2.8-1,5.6-2.3,8.2-3.8c1-0.6,1.9-1.2,2.7-1.8l1.1-0.8l-0.7,1.2c-2.8,4.7-6.2,8.9-9.7,12.6c-3.6,3.7-7.3,6.9-11,9.8
					c-7.4,5.8-14.6,10.1-20.8,13.5c-6.2,3.4-11.3,5.8-14.9,7.4c-1.8,0.8-3.2,1.4-4.2,1.7c-0.5,0.2-0.8,0.3-1.1,0.4
					C287,333.4,286.8,333.5,286.9,333.5c0,0,0.1-0.1,0.4-0.2c0.3-0.1,0.6-0.3,1.1-0.5c0.9-0.4,2.3-1,4.1-1.8
					c3.6-1.6,8.7-4.1,14.9-7.5c6.1-3.4,13.3-7.8,20.7-13.6c3.7-2.9,7.4-6.1,10.9-9.8c3.5-3.7,6.8-7.8,9.6-12.5l0.4,0.3
					c-0.9,0.7-1.8,1.3-2.8,1.9c-2.7,1.6-5.5,2.9-8.3,3.9c-1.4,0.5-2.9,0.9-4.3,1.3c-1.5,0.3-2.9,0.7-4.3,0.9
					c-5.7,0.9-11.4,0.7-16.5-0.4l0.3-0.1c-5.1,12.9-11,23.2-16.2,29.7c-2.6,3.2-5,5.4-6.9,6.7C288,333.1,286.9,333.4,286.9,333.5z"
					/>
			</g>
		</g>
	</g>
	<g>
		<path class="st9" d="M212.2,171h-14.6c-1.9,0-3.4-1.5-3.4-3.4V153c0-1.9,1.5-3.4,3.4-3.4h14.6c1.9,0,3.4,1.5,3.4,3.4v14.6
			C215.6,169.5,214,171,212.2,171z"/>
	</g>
	<g>
		<path class="st10" d="M203.5,163.4C203.5,163.4,203.5,163.4,203.5,163.4c-0.2,0-0.3-0.1-0.4-0.2l-3-3.5c-0.2-0.2-0.2-0.5,0.1-0.7
			c0.2-0.2,0.5-0.2,0.7,0.1l2.6,3.1l7-7.1c0.2-0.2,0.5-0.2,0.7,0c0.2,0.2,0.2,0.5,0,0.7l-7.3,7.5
			C203.8,163.3,203.6,163.4,203.5,163.4z"/>
	</g>
	<g>
		<g>
			<path class="st8" d="M328.7,152.2c0,0.1-22.8,0.3-51,0.3c-28.2,0-51-0.1-51-0.3s22.8-0.3,51-0.3
				C305.8,151.9,328.7,152,328.7,152.2z"/>
		</g>
	</g>
	<g>
		<g>
			<path class="st8" d="M269.6,167.9c0,0-0.6,0.1-1.7,0.1c-1.2,0-2.7,0-4.6,0.1c-3.9,0-9.3,0.1-15.2,0.1c-5.9,0-11.3,0-15.2-0.1
				c-1.9,0-3.4-0.1-4.6-0.1c-1.1,0-1.7-0.1-1.7-0.1c0,0,0.6-0.1,1.7-0.1c1.2,0,2.7,0,4.6-0.1c3.9,0,9.3-0.1,15.2-0.1
				c5.9,0,11.3,0,15.2,0.1c1.9,0,3.4,0.1,4.6,0.1C269,167.8,269.6,167.8,269.6,167.9z"/>
		</g>
	</g>
	<g>
		<g>
			<path class="st8" d="M328.7,159.1c0,0.1-22.8,0.3-51,0.3c-28.2,0-51-0.1-51-0.3c0-0.1,22.8-0.3,51-0.3
				C305.8,158.9,328.7,159,328.7,159.1z"/>
		</g>
	</g>
	<g>
		<path class="st9" d="M212.2,208.7h-14.6c-1.9,0-3.4-1.5-3.4-3.4v-14.6c0-1.9,1.5-3.4,3.4-3.4h14.6c1.9,0,3.4,1.5,3.4,3.4v14.6
			C215.6,207.1,214,208.7,212.2,208.7z"/>
	</g>
	<g>
		<path class="st10" d="M203.5,201C203.5,201,203.5,201,203.5,201c-0.2,0-0.3-0.1-0.4-0.2l-3-3.5c-0.2-0.2-0.2-0.5,0.1-0.7
			c0.2-0.2,0.5-0.2,0.7,0.1l2.6,3.1l7-7.1c0.2-0.2,0.5-0.2,0.7,0c0.2,0.2,0.2,0.5,0,0.7l-7.3,7.5C203.8,201,203.6,201,203.5,201z"/>
	</g>
	<g>
		<g>
			<path class="st8" d="M328.7,189.8c0,0.1-22.8,0.3-51,0.3c-28.2,0-51-0.1-51-0.3s22.8-0.3,51-0.3
				C305.8,189.6,328.7,189.7,328.7,189.8z"/>
		</g>
	</g>
	<g>
		<g>
			<path class="st8" d="M269.6,205.5c0,0-0.6,0.1-1.7,0.1c-1.2,0-2.7,0-4.6,0.1c-3.9,0-9.3,0.1-15.2,0.1c-5.9,0-11.3,0-15.2-0.1
				c-1.9,0-3.4-0.1-4.6-0.1c-1.1,0-1.7-0.1-1.7-0.1c0,0,0.6-0.1,1.7-0.1c1.2,0,2.7,0,4.6-0.1c3.9,0,9.3-0.1,15.2-0.1
				c5.9,0,11.3,0,15.2,0.1c1.9,0,3.4,0.1,4.6,0.1C269,205.5,269.6,205.5,269.6,205.5z"/>
		</g>
	</g>
	<g>
		<g>
			<path class="st8" d="M328.7,196.8c0,0.1-22.8,0.3-51,0.3c-28.2,0-51-0.1-51-0.3c0-0.1,22.8-0.3,51-0.3
				C305.8,196.5,328.7,196.6,328.7,196.8z"/>
		</g>
	</g>
	<g>
		<path class="st9" d="M212.2,246.3h-14.6c-1.9,0-3.4-1.5-3.4-3.4v-14.6c0-1.9,1.5-3.4,3.4-3.4h14.6c1.9,0,3.4,1.5,3.4,3.4v14.6
			C215.6,244.8,214,246.3,212.2,246.3z"/>
	</g>
	<g>
		<path class="st10" d="M203.5,238.7C203.5,238.7,203.5,238.7,203.5,238.7c-0.2,0-0.3-0.1-0.4-0.2l-3-3.5c-0.2-0.2-0.2-0.5,0.1-0.7
			c0.2-0.2,0.5-0.2,0.7,0.1l2.6,3.1l7-7.1c0.2-0.2,0.5-0.2,0.7,0c0.2,0.2,0.2,0.5,0,0.7l-7.3,7.5
			C203.8,238.7,203.6,238.7,203.5,238.7z"/>
	</g>
	<g>
		<g>
			<path class="st8" d="M328.7,227.5c0,0.1-22.8,0.3-51,0.3c-28.2,0-51-0.1-51-0.3s22.8-0.3,51-0.3
				C305.8,227.2,328.7,227.4,328.7,227.5z"/>
		</g>
	</g>
	<g>
		<g>
			<path class="st8" d="M269.6,243.2c0,0-0.6,0.1-1.7,0.1c-1.2,0-2.7,0-4.6,0.1c-3.9,0-9.3,0.1-15.2,0.1c-5.9,0-11.3,0-15.2-0.1
				c-1.9,0-3.4-0.1-4.6-0.1c-1.1,0-1.7-0.1-1.7-0.1c0,0,0.6-0.1,1.7-0.1c1.2,0,2.7,0,4.6-0.1c3.9,0,9.3-0.1,15.2-0.1
				c5.9,0,11.3,0,15.2,0.1c1.9,0,3.4,0.1,4.6,0.1C269,243.1,269.6,243.2,269.6,243.2z"/>
		</g>
	</g>
	<g>
		<g>
			<path class="st8" d="M328.7,234.5c0,0.1-22.8,0.3-51,0.3c-28.2,0-51-0.1-51-0.3c0-0.1,22.8-0.3,51-0.3
				C305.8,234.2,328.7,234.3,328.7,234.5z"/>
		</g>
	</g>
	<g>
		<path class="st9" d="M212.2,284h-14.6c-1.9,0-3.4-1.5-3.4-3.4V266c0-1.9,1.5-3.4,3.4-3.4h14.6c1.9,0,3.4,1.5,3.4,3.4v14.6
			C215.6,282.5,214,284,212.2,284z"/>
	</g>
	<g>
		<path class="st10" d="M203.5,276.4C203.5,276.4,203.5,276.4,203.5,276.4c-0.2,0-0.3-0.1-0.4-0.2l-3-3.5c-0.2-0.2-0.2-0.5,0.1-0.7
			c0.2-0.2,0.5-0.2,0.7,0.1l2.6,3.1l7-7.1c0.2-0.2,0.5-0.2,0.7,0c0.2,0.2,0.2,0.5,0,0.7l-7.3,7.5
			C203.8,276.3,203.6,276.4,203.5,276.4z"/>
	</g>
	<g>
		<g>
			<path class="st8" d="M328.7,265.2c0,0.1-22.8,0.3-51,0.3c-28.2,0-51-0.1-51-0.3s22.8-0.3,51-0.3
				C305.8,264.9,328.7,265,328.7,265.2z"/>
		</g>
	</g>
	<g>
		<g>
			<path class="st8" d="M269.6,280.9c0,0-0.6,0.1-1.7,0.1c-1.2,0-2.7,0-4.6,0.1c-3.9,0-9.3,0.1-15.2,0.1c-5.9,0-11.3,0-15.2-0.1
				c-1.9,0-3.4-0.1-4.6-0.1c-1.1,0-1.7-0.1-1.7-0.1c0,0,0.6-0.1,1.7-0.1c1.2,0,2.7,0,4.6-0.1c3.9,0,9.3-0.1,15.2-0.1
				c5.9,0,11.3,0,15.2,0.1c1.9,0,3.4,0.1,4.6,0.1C269,280.8,269.6,280.8,269.6,280.9z"/>
		</g>
	</g>
	<g>
		<g>
			<path class="st8" d="M328.7,272.1c0,0.1-22.8,0.3-51,0.3c-28.2,0-51-0.1-51-0.3c0-0.1,22.8-0.3,51-0.3
				C305.8,271.9,328.7,272,328.7,272.1z"/>
		</g>
	</g>
	<g>
		<path class="st11" d="M228.9,129.5c-0.6,0.7-1.3,1-2.2,1c-1.2,0-2-0.5-3.3-1.8c-2.4-0.2-4.1-2-4.1-4.4c0-2.5,2-4.4,4.6-4.4
			c2.7,0,4.6,1.9,4.6,4.4c0,2.1-1.3,3.7-3.2,4.2c0.5,0.5,0.9,0.7,1.4,0.7c0.6,0,1.1-0.2,1.5-0.7L228.9,129.5z M223.8,127.3
			c1.7,0,3-1.3,3-3c0-1.8-1.3-3-3-3c-1.7,0-3,1.3-3,3C220.8,126.1,222.1,127.3,223.8,127.3z"/>
		<path class="st11" d="M236.3,122v6.6h-1.5v-0.8c-0.5,0.6-1.3,0.9-2.1,0.9c-1.7,0-2.8-0.9-2.8-2.9V122h1.5v3.5
			c0,1.2,0.6,1.8,1.5,1.8c1.1,0,1.8-0.7,1.8-2V122H236.3z"/>
		<path class="st11" d="M243.8,124.7v3.8h-1.4v-0.8c-0.4,0.6-1.1,0.9-2.1,0.9c-1.5,0-2.4-0.8-2.4-2c0-1.1,0.7-2,2.7-2h1.7v-0.1
			c0-0.9-0.5-1.4-1.6-1.4c-0.7,0-1.5,0.2-2,0.7l-0.6-1.1c0.7-0.5,1.7-0.8,2.8-0.8C242.7,122,243.8,122.9,243.8,124.7z M242.3,126.5
			v-0.8h-1.6c-1,0-1.3,0.4-1.3,0.9c0,0.6,0.5,0.9,1.3,0.9C241.4,127.6,242,127.2,242.3,126.5z"/>
		<path class="st11" d="M245.8,119.5h1.5v9.1h-1.5V119.5z"/>
		<path class="st11" d="M249.1,120c0-0.5,0.4-0.9,1-0.9c0.6,0,1,0.4,1,0.9c0,0.5-0.4,1-1,1C249.6,121,249.1,120.5,249.1,120z
			 M249.4,122h1.5v6.6h-1.5V122z"/>
		<path class="st11" d="M256.8,128.2c-0.4,0.3-0.9,0.4-1.5,0.4c-1.4,0-2.3-0.8-2.3-2.2v-3.2H252v-1.2h1.1v-1.5h1.5v1.5h1.8v1.2h-1.8
			v3.1c0,0.6,0.3,1,0.9,1c0.3,0,0.6-0.1,0.9-0.3L256.8,128.2z"/>
		<path class="st11" d="M264.1,122l-3.1,7.1c-0.6,1.5-1.4,1.9-2.5,1.9c-0.7,0-1.3-0.2-1.8-0.6l0.6-1.1c0.3,0.3,0.7,0.5,1.1,0.5
			c0.5,0,0.9-0.3,1.2-0.9l0.1-0.3l-2.9-6.6h1.6l2.1,4.9l2.1-4.9H264.1z"/>
		<path class="st11" d="M267.9,124.3c0-2.5,1.9-4.4,4.5-4.4c1.3,0,2.4,0.4,3.1,1.3l-0.6,0.6c-0.7-0.7-1.6-1-2.5-1
			c-2.1,0-3.6,1.5-3.6,3.6c0,2,1.6,3.6,3.6,3.6c1,0,1.8-0.3,2.5-1l0.6,0.6c-0.8,0.8-1.9,1.3-3.2,1.3
			C269.8,128.7,267.9,126.8,267.9,124.3z"/>
		<path class="st11" d="M276.4,125.4c0-1.9,1.4-3.3,3.3-3.3s3.3,1.4,3.3,3.3s-1.4,3.3-3.3,3.3S276.4,127.3,276.4,125.4z
			 M282.1,125.4c0-1.5-1-2.5-2.4-2.5c-1.4,0-2.4,1-2.4,2.5c0,1.5,1,2.5,2.4,2.5C281.1,127.9,282.1,126.9,282.1,125.4z"/>
		<path class="st11" d="M290.7,124.8v3.7h-0.9v-3.7c0-1.4-0.7-2.1-1.9-2.1c-1.4,0-2.3,0.9-2.3,2.3v3.4h-0.9v-6.5h0.8v1.2
			c0.5-0.8,1.3-1.2,2.5-1.2C289.6,122.1,290.7,123,290.7,124.8z"/>
		<path class="st11" d="M296.5,128.2c-0.3,0.3-0.9,0.5-1.4,0.5c-1.2,0-1.9-0.7-1.9-1.9v-3.9h-1.2v-0.7h1.2v-1.4h0.9v1.4h2v0.7h-2
			v3.9c0,0.8,0.4,1.2,1.1,1.2c0.4,0,0.7-0.1,1-0.3L296.5,128.2z"/>
		<path class="st11" d="M301.3,122.1v0.8c-0.1,0-0.1,0-0.2,0c-1.4,0-2.2,0.9-2.2,2.4v3.3h-0.9v-6.5h0.8v1.3
			C299.3,122.5,300.1,122.1,301.3,122.1z"/>
		<path class="st11" d="M302.2,125.4c0-1.9,1.4-3.3,3.3-3.3s3.3,1.4,3.3,3.3s-1.4,3.3-3.3,3.3S302.2,127.3,302.2,125.4z
			 M307.9,125.4c0-1.5-1-2.5-2.4-2.5c-1.4,0-2.4,1-2.4,2.5c0,1.5,1,2.5,2.4,2.5C306.8,127.9,307.9,126.9,307.9,125.4z"/>
		<path class="st11" d="M310.5,119.5h0.9v9.1h-0.9V119.5z"/>
	</g>
	<g>
		<path class="st11" d="M199,64.9v13.2c0,7.7,6.2,13.9,13.9,13.9H310c7.7,0,13.9-6.2,13.9-13.9V64.9L199,64.9z"/>
	</g>
	<g>
		<path class="st11" d="M261.4,68.8c-7.2,0-13-5.8-13-13s5.8-13,13-13c7.2,0,13,5.8,13,13S268.5,68.8,261.4,68.8z M261.4,47.8
			c-4.4,0-8,3.6-8,8c0,4.4,3.6,8,8,8c4.4,0,8-3.6,8-8C269.4,51.4,265.8,47.8,261.4,47.8z"/>
	</g>
	<g>
		<path class="st9" d="M621.2,444l5.2,22.1l10.3,17.6c0.7,1.3,0.3,2.9-1.1,3.6l0,0c-0.7,0.4-1.6,0.4-2.3,0
			c-4.6-2.5-21.6-11.7-21.9-13.5c-0.4-2.1-7.1-25.3-7.1-25.3L621.2,444z"/>
	</g>
	<g class="st12">
		<path class="st10" d="M635.6,487.4l-24.7-15.2l0.3,1c0.2,0.9,0.8,1.6,1.5,2.1c2,1.4,7.7,5,20.5,12
			C633.9,487.8,634.8,487.8,635.6,487.4L635.6,487.4z"/>
	</g>
	<g class="st12">
		<g>
			<path class="st10" d="M613.7,463.1c0.7,0.2,1.2,1.1,0.9,1.8c-0.2,0.7-1.1,1.2-1.8,0.9c-0.7-0.2-1.3-1.2-1-1.9
				c0.3-0.7,1.3-1.2,2-0.8"/>
		</g>
	</g>
	<g>
		<g>
			<path class="st8" d="M627.2,478.4c0.2,0,0.3-1.4,1.6-2.4c1.2-1.1,2.6-1.1,2.6-1.3c0-0.1-0.3-0.2-0.9-0.1c-0.6,0.1-1.4,0.4-2,1
				c-0.7,0.6-1.1,1.3-1.2,1.9C627.1,478.1,627.2,478.4,627.2,478.4z"/>
		</g>
	</g>
	<g>
		<g>
			<path class="st8" d="M629.8,481.2c0.1,0.1,0.7-0.9,1.8-1.6c1.1-0.7,2.3-0.8,2.3-0.9c0-0.1-1.3-0.3-2.5,0.5
				C630.1,479.9,629.7,481.1,629.8,481.2z"/>
		</g>
	</g>
	<g>
		<g>
			<path class="st8" d="M622.9,475.2c0.1,0.1,1-1.4,2.7-2.7c1.7-1.3,3.4-1.6,3.3-1.8c0-0.1-1.9,0-3.6,1.4
				C623.5,473.4,622.8,475.2,622.9,475.2z"/>
		</g>
	</g>
	<g>
		<g>
			<path class="st8" d="M620.5,468c0.1,0.1,1.3-0.8,3-1.3c1.7-0.6,3.2-0.5,3.2-0.7c0-0.1-1.5-0.5-3.4,0.1
				C621.5,466.8,620.4,467.9,620.5,468z"/>
		</g>
	</g>
	<g>
		<g>
			<path class="st8" d="M618.5,461c0.1,0.1,1.2-1,3.1-1.5c1.8-0.5,3.3,0.1,3.4-0.1c0-0.1-0.3-0.3-1-0.5c-0.6-0.2-1.6-0.2-2.6,0
				c-1,0.2-1.8,0.7-2.3,1.2C618.7,460.6,618.5,461,618.5,461z"/>
		</g>
	</g>
	<g>
		<g>
			<path class="st8" d="M621.2,458.2c0,0,0-0.3-0.2-0.9c-0.2-0.6-0.6-1.4-1.4-2.2c-0.4-0.4-0.8-0.9-1.6-1c-0.4-0.1-0.9,0.1-1,0.5
				c-0.2,0.4-0.2,0.8-0.1,1.2c0.4,1.5,2.2,2.6,3.9,2.4c1.8-0.3,3-1.7,3.4-3.2c0.1-0.4,0-0.8-0.3-1.2c-0.3-0.4-0.8-0.4-1.2-0.2
				c-0.7,0.3-1,0.8-1.3,1.3c-0.6,0.9-1,1.7-1.1,2.3c-0.2,0.6-0.2,0.9-0.1,0.9c0.1,0,0.3-1.3,1.6-3c0.3-0.4,0.7-0.9,1.2-1.1
				c0.2-0.1,0.5-0.1,0.6,0.1c0.1,0.2,0.2,0.5,0.1,0.8c-0.3,1.2-1.5,2.5-2.9,2.7c-1.5,0.2-3-0.7-3.4-2c-0.1-0.3-0.1-0.6,0-0.8
				c0.1-0.2,0.3-0.3,0.6-0.3c0.5,0.1,1,0.5,1.3,0.8C620.8,456.9,621.1,458.3,621.2,458.2z"/>
		</g>
	</g>
	<g class="st13">
		<polygon points="605,451.1 606,454.4 622.8,450.7 622.2,448.3 		"/>
	</g>
	<g>
		<path class="st9" d="M554.5,449.8l1.2,17.7c0,0-17.6,7.1-17.7,10.4l34.4-1l-0.7-27.6L554.5,449.8z"/>
	</g>
	<g class="st12">
		<g>
			<path class="st10" d="M566.2,465.7c0.7,0.2,1.2,0.9,1,1.6c-0.1,0.7-0.9,1.2-1.5,1c-0.7-0.1-1.3-1-1.1-1.7
				c0.2-0.7,1.1-1.2,1.7-0.9"/>
		</g>
	</g>
	<g class="st12">
		<path class="st10" d="M572.3,476.9l-0.1-2.8l-33,2c0,0-1.5,0.7-1.3,1.8L572.3,476.9z"/>
	</g>
	<g>
		<g>
			<path class="st8" d="M555.1,467.3c0,0.2,0.9,0.2,1.7,0.7c0.9,0.5,1.3,1.2,1.5,1.1c0.2,0-0.1-1-1.2-1.6
				C556,466.9,555,467.2,555.1,467.3z"/>
		</g>
	</g>
	<g>
		<g>
			<path class="st8" d="M551.5,468.9c0,0.2,0.7,0.4,1.3,1.1c0.6,0.7,0.8,1.4,0.9,1.4c0.2,0,0.2-1-0.5-1.8
				C552.5,468.8,551.5,468.8,551.5,468.9z"/>
		</g>
	</g>
	<g>
		<g>
			<path class="st8" d="M549.6,473.3c0.2,0,0.4-0.8-0.1-1.7c-0.5-0.9-1.3-1.2-1.3-1.1c-0.1,0.1,0.4,0.6,0.8,1.4
				C549.4,472.6,549.4,473.3,549.6,473.3z"/>
		</g>
	</g>
	<g>
		<g>
			<path class="st8" d="M555.2,463.3c0.1,0.2,0.8-0.1,1.8-0.1c1,0,1.7,0.3,1.8,0.2c0.1-0.1-0.6-0.7-1.8-0.8
				C555.9,462.6,555.2,463.1,555.2,463.3z"/>
		</g>
	</g>
	<g class="st13">
		<polygon points="554.5,450.4 554.7,453.6 571.7,453.1 571.7,450 		"/>
	</g>
	<g>
		<g>
			<path class="st8" d="M555.1,459.7c0,0.1,0.7,0.2,1.7-0.1c0.5-0.1,1.1-0.3,1.8-0.6c0.3-0.2,0.6-0.3,1-0.6c0.2-0.1,0.3-0.2,0.5-0.4
				c0.2-0.2,0.3-0.6,0-0.9c-0.2-0.3-0.5-0.4-0.7-0.4c-0.3,0-0.5,0.1-0.6,0.1c-0.4,0.1-0.7,0.2-1.1,0.4c-0.6,0.3-1.2,0.7-1.6,1.1
				c-0.8,0.8-1,1.4-1,1.4c0.1,0.1,0.4-0.5,1.2-1.1c0.4-0.3,0.9-0.6,1.5-0.9c0.3-0.1,0.6-0.2,1-0.3c0.4-0.1,0.7-0.1,0.8,0
				c0,0.1,0,0.1,0,0.2c-0.1,0.1-0.2,0.2-0.4,0.3c-0.3,0.2-0.6,0.4-0.9,0.5c-0.6,0.3-1.2,0.5-1.6,0.7
				C555.7,459.5,555.1,459.6,555.1,459.7z"/>
		</g>
	</g>
	<g>
		<g>
			<path class="st8" d="M555.3,459.9c0.1,0,0.4-0.6,0.4-1.7c0-0.5-0.1-1.2-0.3-1.9c-0.1-0.3-0.3-0.7-0.5-1c-0.2-0.3-0.5-0.8-1.1-0.8
				c-0.3,0-0.6,0.3-0.7,0.5c-0.1,0.2-0.1,0.4-0.2,0.6c-0.1,0.4,0,0.8,0,1.2c0.1,0.7,0.4,1.3,0.8,1.8c0.7,0.9,1.4,1,1.4,1
				c0.1-0.1-0.5-0.4-1.1-1.2c-0.3-0.4-0.5-1-0.6-1.6c0-0.3,0-0.7,0-1c0-0.4,0.2-0.7,0.3-0.6c0.2,0,0.5,0.3,0.6,0.5
				c0.2,0.3,0.3,0.6,0.5,0.9c0.2,0.6,0.3,1.2,0.4,1.7C555.4,459.3,555.2,459.9,555.3,459.9z"/>
		</g>
	</g>
	<g>
		<path class="st8" d="M597.6,162.5c-1.1,0.9-1.1,2.7-0.4,3.9c0.7,1.2,1.9,2.1,3,2.9c1.1,0.9,2.3,1.9,2.7,3.2c0.8,2.5-1,5.3,0,7.8
			c0.8,2.1,3.5,3,4.6,5c1.2,2,0.5,4.6-0.3,6.8c-0.9,2.2-1.9,4.5-1.5,6.8c0.3,1.3,1,2.5,0.8,3.8c-0.2,1.9-2.1,3.1-3.9,3.7
			c-2.9,1-6.1,1.3-9.1,0.7c-2.2-0.4-4.5-1.3-5.6-3.2c-1-1.6-1-3.7-1-5.6c0.2-11.1,1.6-22.2,4.1-33"/>
	</g>
	<g>
		<path class="st7" d="M535.9,238.1l10.6-25.3c0,0,7.4-23,19.2-22.6l2.8,20.7l-16.3,35.1l-17.5-7.5"/>
	</g>
	<g>
		<path class="st8" d="M555.5,251.8c0,0-19.2,37.8-18.8,49.6c0.2,6.6,10.2,149.3,10.2,149.3h28.9l-5.4-148.9l30.3,149.9l25.6-4.2
			L606,287.3c0,0-3.5-21.8-10.7-30.8L555.5,251.8z"/>
	</g>
	<g>
		<g>
			<path class="st14" d="M569.9,286.2c0.1,0,0.4,3.5,0.6,7.8c0.2,4.3,0.2,7.8,0,7.8c-0.1,0-0.4-3.5-0.6-7.8
				C569.8,289.7,569.7,286.2,569.9,286.2z"/>
		</g>
	</g>
	<g>
		<g>
			<path class="st14" d="M607.4,300.9c0,0-0.3,0.1-0.9,0.2c-0.6,0.1-1.5,0.1-2.5,0.1c-2.1-0.1-5.1-0.8-7.9-2.7
				c-2.7-1.9-4.5-4.4-5.3-6.4c-0.4-1-0.7-1.8-0.8-2.4c-0.1-0.6-0.2-0.9-0.1-0.9c0.1,0,0.4,1.3,1.3,3.1c0.9,1.9,2.7,4.3,5.3,6.1
				c2.6,1.8,5.5,2.5,7.6,2.7C606,301,607.3,300.8,607.4,300.9z"/>
		</g>
	</g>
	<g>
		<g>
			<path class="st14" d="M548.3,287.1c0.1,0-0.3,0.9-1,2.3c-0.7,1.4-2,3.2-3.6,4.9c-1.7,1.7-3.4,3-4.8,3.8c-1.3,0.8-2.2,1.2-2.3,1.1
				c-0.1-0.1,3.4-1.9,6.7-5.3C546.6,290.6,548.2,287,548.3,287.1z"/>
		</g>
	</g>
	<g>
		<g>
			<path class="st14" d="M573.1,452.7c0,0,0-0.1-0.1-0.4c0-0.3-0.1-0.7-0.1-1.2c-0.1-1.1-0.2-2.6-0.3-4.5c-0.3-3.9-0.6-9.6-1.1-16.6
				c-0.9-14-2.1-33.3-3.4-54.6c-1.3-21.3-2.5-40.7-3.3-54.6c-0.2-7,0.5-12.7,1.8-16.5c0.6-1.9,1.4-3.2,2.1-4
				c0.3-0.4,0.6-0.7,0.8-0.8c0.2-0.2,0.3-0.2,0.3-0.2c0,0-0.1,0.1-0.3,0.3c-0.2,0.2-0.5,0.4-0.8,0.8c-0.6,0.8-1.4,2.1-2,4
				c-1.2,3.7-1.8,9.4-1.6,16.4c0.9,14,2.1,33.3,3.4,54.6c1.3,21.3,2.4,40.6,3.3,54.6c0.4,7,0.7,12.6,0.9,16.6
				c0.1,1.9,0.2,3.4,0.2,4.5c0,0.5,0,0.9,0,1.2C573.1,452.6,573.1,452.7,573.1,452.7z"/>
		</g>
	</g>
	<g>
		<g>
			<path class="st14" d="M624.9,450.1c-0.1,0-4.9-33.3-10.6-74.5c-5.7-41.2-10.2-74.5-10-74.6c0.1,0,4.9,33.3,10.6,74.5
				C620.5,416.7,625,450.1,624.9,450.1z"/>
		</g>
	</g>
	<g>
		<path class="st7" d="M594.7,252.8l5.4-27.6l4.2-29.7c-3.7-3.2-8.1-5.4-13.5-6.4l-25.3,1.1l-9.5,22.3l1,46.2L594.7,252.8z"/>
	</g>
	<g>
		<path class="st9" d="M593.1,189.7c0,0-12.1,26.8-18.4,28.6c-2.8,11.4-5.4,71.4-5.4,71.4L609,288L597.3,249l4.7-19.5
			c0,0-5.2-30.9,0.4-36.2C599.2,191.2,596.7,189.9,593.1,189.7z"/>
	</g>
	<g>
		<path class="st9" d="M568.5,189.2c0,0-1.3,8.5-1,15.9c0.2,4.8,2.1,9.3,5.4,12.8v0l-5.3,71.7l-28.2-4.1c0,0,5.8-17.9,10.4-25.8
			c0,0,2.2-3.7,6.2-10.7c0,0-2.8-22.9-2.9-26.1c0-1.2,7.3-31.3,7.3-31.3C563,189.7,565.9,188.7,568.5,189.2z"/>
	</g>
	<g>
		<path class="st9" d="M560.9,155.5c-3.6-0.9-5.8-2.2-5.8-3.6c0-2.9,9.4-5.3,21.1-5.3c11.6,0,21.1,2.4,21.1,5.3
			c0,1.4-2.2,2.7-5.8,3.6"/>
	</g>
	<g class="st15">
		<path d="M562.9,155.4c-3.2-0.8-5.2-2-5.2-3.2c0.2-3.5,8.4-4.7,18.7-4.7s18.7,2.1,18.7,4.7c0,1.2-1.9,2.4-5.1,3.2"/>
	</g>
	<g>
		<path class="st8" d="M591.4,152.5c-0.4,1.5,0.7,3,1.9,4c1.3,0.9,2.8,1.6,3.7,2.8c1.3,1.7,1.4,4.1,0.5,6.1c-0.8,2-2.3,3.6-4,5
			c-1.2,1.1-2.8,2.1-4.3,1.6"/>
	</g>
	<g>
		<path class="st7" d="M602.3,193.3c-0.5,0-2.4,4.7-3.7,9c-2.5,7.6-1.6,15.9,2.3,22.8l8.7,15.4l-26.3,8.8l3.9,12.3l36.9-9.9
			c3.4-0.9,6.2-3.4,7.3-6.8l0,0c1.1-3,0.8-6.3-0.8-9l-19.2-33C611.4,202.9,605.1,193.2,602.3,193.3z"/>
	</g>
	<g>
		<g>
			<g>
				<path class="st16" d="M591.1,154.3c-0.2-8-6.9-14.4-15-14c-7.6,0.4-13.5,7-13.5,14.6c0,6.7,0.1,13.4,0.5,15.8
					c1.1,7.2,5.8,9.4,7.6,10c0.4,0.1,1.5,0.2,2,0.2l0,0c0,0,0,0,0,0.1l-0.4,8.5c0.1,5.6,3.8,10,9.4,10c5.6,0,9.2-4.8,9.3-10.4
					L591.1,154.3z"/>
			</g>
			<g>
				<g>
					<g>
						<g>
							<path class="st17" d="M572.7,181c0,0,4.8,0.4,10.9-3.2c0,0-1.9,6.4-11,5.5L572.7,181z"/>
						</g>
					</g>
				</g>
			</g>
		</g>
	</g>
	<g>
		<path class="st8" d="M577.9,166.5c0.1,0,0.2,0,0.2,0.2s-0.1,0.2-0.2,0.2C577.8,166.8,577.8,166.6,577.9,166.5"/>
	</g>
	<g>
		<path class="st8" d="M570.6,149c1.3,1.9,3.5,3.2,5.9,3.4c1.5,0.1,3.3-0.1,4.4,0.9c0.8,0.7,1.1,1.9,1.5,3c0.6,1.6,1.6,3.1,3.1,3.9
			c1.2,0.7,2.6,0.9,3.5,2c0.9,1.1,0.8,2.6,0.8,4.1c0,1.4,0.4,3,1.6,3.7c0-5.1,0.1-10.3,0.1-15.4c0-0.8,0-1.6-0.3-2.3
			c-0.6-1.6-2.4-2.4-4.1-2.8c-4.7-1.3-9.7-1.4-14.6-1.6"/>
	</g>
	<g>
		<path class="st9" d="M558,150.5c0,0,3-12.4,3.3-13c0.3-0.6,3.8-6,12.2-7.6h7c0,0,9.9,3.2,11.7,5.6c1.8,2.4,2.6,14.1,2.6,14.1
			l-19.6-4.3l-13.3,3.2L558,150.5z"/>
	</g>
	<g>
		<path class="st9" d="M575.8,128.5c-0.3,0-3,0-3,0s-1,1-1.2,3.1c-0.1,2.2-0.6,17-0.6,17l8.7-0.4l-0.3-18.4l3,0.7l-0.1-1l-0.8-0.9
			L575.8,128.5z"/>
	</g>
	<g>
		<path class="st14" d="M561.7,151.6l0.2-4.5l13.2-3.9l16.4,4.8v4.8C591.5,152.8,578.1,145.9,561.7,151.6z"/>
	</g>
	<g>
		<path class="st9" d="M562.7,146.1l-0.6,0.6l-4.7,3c0,0,9.1-2.6,18.5-2.5c9.4,0.1,20.2,3.3,20.2,3.3l-6.2-3.8l0,0
			c-2-2.1-4.7-3.3-7.6-3.4l-11.8-0.2C567.5,143,564.8,144.1,562.7,146.1z"/>
	</g>
	<g>
		<g>
			<path class="st8" d="M571.2,142.7c-0.1,0-0.1-2.8,0.1-6.3c0.2-3.5,0.5-6.3,0.6-6.3c0.1,0,0.1,2.8-0.1,6.3
				C571.6,139.9,571.3,142.8,571.2,142.7z"/>
		</g>
	</g>
	<g>
		<g>
			<path class="st8" d="M582.4,130.5c0,0.1-0.9-0.1-2.2-0.3c-0.3,0-0.5,0.3-0.5,0.6c0,0.4,0,0.8,0,1.3c0,0.9,0,2,0.1,3
				c0,2.1,0,4.1,0,5.5c0,1.4-0.1,2.3-0.1,2.3s-0.2-0.9-0.2-2.3c-0.1-1.4-0.1-3.3-0.2-5.5c0-1.1,0-2.1,0-3c0-0.5,0-0.9,0-1.3
				c0-0.5,0.5-0.9,1-0.9C581.6,130.2,582.4,130.5,582.4,130.5z"/>
		</g>
	</g>
	<g>
		<g>
			<path class="st8" d="M557.1,149.6c0,0,0.1-0.1,0.4-0.2c0.3-0.1,0.6-0.3,1.1-0.5c0.5-0.2,1.1-0.5,1.8-0.8c0.7-0.3,1.4-0.8,1.9-1.6
				c0.6-0.7,0.6-1.9,1.4-2.8c0.4-0.5,1-0.8,1.6-0.9c0.6-0.1,1.3-0.1,1.9-0.2c2.5-0.1,5.4-0.2,8.3-0.1c2.9,0.1,5.7,0.3,8.3,0.5
				c1.3,0.1,2.6,0.3,3.5,1.2c0.4,0.4,0.7,0.9,1,1.3c0.1,0.2,0.3,0.4,0.4,0.6l0.2,0.3c0.1,0.1,0.1,0.1,0.2,0.2c1.7,0.9,3.1,1.5,4.1,2
				c0.5,0.2,0.9,0.4,1.1,0.6c0.2,0.1,0.4,0.2,0.4,0.2c0,0-0.6-0.2-1.5-0.6c-1-0.4-2.4-1-4.2-1.8c-0.1-0.1-0.2-0.1-0.3-0.3l-0.2-0.3
				c-0.1-0.2-0.3-0.4-0.5-0.6c-0.3-0.4-0.6-0.9-1-1.3c-0.8-0.8-2-1-3.2-1.1c-2.5-0.2-5.3-0.4-8.3-0.4c-2.9-0.1-5.7-0.1-8.3,0
				c-1.3,0-2.5,0-3.2,0.9c-0.7,0.8-0.8,1.9-1.5,2.8c-0.6,0.8-1.4,1.3-2.1,1.6c-0.7,0.3-1.3,0.5-1.8,0.7
				C557.7,149.4,557.1,149.6,557.1,149.6z"/>
		</g>
	</g>
	<g>
		<g>
			<path class="st8" d="M558.9,150.3c0,0,0.1-0.1,0.3-0.3c0.2-0.2,0.5-0.4,0.9-0.6c0.9-0.5,2.2-1,3.9-1.3c3.4-0.8,8.2-1.3,13.5-0.8
				c2.6,0.2,5.1,0.3,7.4,0.6c2.3,0.4,4.3,0.8,6,1.3c0.8,0.2,1.6,0.5,2.2,0.7c0.6,0.2,1.2,0.5,1.6,0.9c0.3,0.4,0.4,0.8,0.4,1.1
				c0,0.3-0.1,0.4-0.1,0.4c0,0,0.2-0.6-0.5-1.3c-0.3-0.3-0.9-0.6-1.5-0.8c-0.6-0.2-1.4-0.4-2.2-0.6c-1.7-0.4-3.7-0.8-5.9-1.1
				c-2.2-0.3-4.8-0.4-7.4-0.6c-5.2-0.5-10,0-13.4,0.6c-1.7,0.3-3,0.8-3.9,1.2C559.3,150,558.9,150.3,558.9,150.3z"/>
		</g>
	</g>
	<g>
		<g>
			<path class="st18" d="M572.6,143.3c0,0,0.2,0,0.6,0c0.5,0,1.1,0,1.7,0c1.4,0,3.4,0.1,5.6,0.3c1.1,0.1,2.1,0.2,3.1,0.3
				c0.9,0.1,1.8,0.2,2.5,0.4c0.7,0.2,1.2,0.7,1.4,1c0.2,0.4,0.2,0.6,0.2,0.6c0,0,0-0.2-0.3-0.6c-0.2-0.3-0.7-0.7-1.3-0.9
				c-0.7-0.2-1.5-0.3-2.5-0.4c-1-0.1-2-0.2-3.1-0.3c-2.2-0.2-4.1-0.3-5.6-0.4c-0.6,0-1.2-0.1-1.7-0.1
				C572.8,143.4,572.6,143.3,572.6,143.3z"/>
		</g>
	</g>
	<g>
		<g>
			<path class="st18" d="M579.1,141.6c0,0,0-0.2-0.1-0.4c0-0.3-0.1-0.7-0.1-1.2c-0.1-1-0.2-2.4-0.3-4c0-1.6,0-3,0-4
				c0-0.5,0-0.9,0.1-1.2c0-0.3,0-0.4,0.1-0.4c0,0,0,0.2,0,0.4c0,0.4,0,0.8,0,1.2c0,1,0,2.4,0,4c0,1.6,0.1,3,0.2,4
				c0,0.4,0.1,0.8,0.1,1.2C579.2,141.4,579.2,141.6,579.1,141.6z"/>
		</g>
	</g>
	<g>
		<g>
			<path class="st18" d="M589,147.1c0,0,0.1,0,0.4,0.1c0.4,0.1,0.7,0.3,1.1,0.4c1.1,0.5,2.3,0.9,3.5,1.5c0.7,0.3,1.3,0.5,1.9,0.9
				c0.6,0.3,1,0.8,1.1,1.3c0.2,0.5,0.1,0.9,0,1.2c-0.1,0.3-0.3,0.3-0.3,0.3c0,0,0.1-0.1,0.2-0.4c0.1-0.2,0.1-0.6,0-1.1
				c-0.1-0.4-0.5-0.9-1.1-1.2c-0.5-0.3-1.2-0.6-1.9-0.9c-1.2-0.5-2.4-1-3.5-1.5c-0.3-0.2-0.7-0.3-1-0.5
				C589.1,147.2,589,147.2,589,147.1z"/>
		</g>
	</g>
	<g>
		<g>
			<path class="st18" d="M574,128.8c0,0,0.5,0,1.2-0.1c0.8,0,1.8,0,3,0c1.2,0,2.2,0,3,0.2c0.4,0.1,0.7,0.3,0.8,0.4
				c0.1,0.2,0.2,0.3,0.2,0.3c0,0-0.2-0.5-1-0.6c-0.7-0.1-1.8,0-2.9-0.1c-1.2,0-2.2-0.1-3-0.1C574.5,128.9,574,128.9,574,128.8z"/>
		</g>
	</g>
	<g>
		<path class="st8" d="M561.7,151.6c-0.9,3.9-0.7,8.2,0.8,11.9c0,0,0-4.1,0.7-7.4c0.2-1,0.5-2.6,1.1-3.4c0.8-1,2.1-1.2,3.4-1.5
			c1.2-0.3,2.6-0.5,3.1-1.6C567.3,149.8,564.7,150.6,561.7,151.6"/>
	</g>
	<g>
		<path class="st8" d="M572.6,183.3c-1.2,0.2-2.8,0.6-3.6,1.6c-0.8,1-1.4,2.3-2.4,3.2c-1,0.8-2.3,1-3.3,1.9
			c-1.8,1.7-0.9,4.7-1.7,7.1c-0.5,1.4-1.5,2.5-2.2,3.7c-0.8,1.2-1.3,2.8-0.8,4.1c0.5,1.1,1.6,1.8,2.8,2c1.2,0.2,2.4-0.1,3.5-0.5
			c0-0.9-0.1-1.9-0.1-2.8c0.1,0.5,0.3,1.1,0.7,1.5c0.3,0.4,1,0.7,1.5,0.5c0.8-0.3,0.8-1.4,0.7-2.3c-0.3-3.2-0.2-6.6,1.6-9.2
			c0.9-1.2,2.3-2.6,3-3.9L572.6,183.3"/>
	</g>
	<g>
		<path class="st16" d="M521.2,233.2c0,0,1.8-3.9,4.4-3.7c2.6,0.2,9.9,1,9.9,1l0.8,3.6l-16-0.8"/>
	</g>
	<g>
		<path class="st9" d="M528.8,233.3l4.5-13.9c0.2-0.7,0.9-1.2,1.7-1.2l0,0c1.2,0,2,1.1,1.7,2.2l-3.9,13.6L528.8,233.3z"/>
	</g>
	<g>
		<polygon class="st8" points="512.9,233.3 556.3,233.3 585.2,272.4 544.5,271.8 		"/>
	</g>
	<g>
		<path class="st16" d="M566.7,247.6c0,0,3.5-0.4,5.8-0.2c2.3,0.2,10.8,2.2,10.8,2.2l3.6,11.4l-4.2-0.4l-2.9,1.4
			c-4.5,0.6-9.8,1.2-10.8,1c0,0-1.7-1-1.2-1.9c0,0-3.9-0.5-3.5-3.5c0,0-2.2-0.4-2.5-2.8l-7.1-0.4c-0.7,0-1.3-0.6-1.3-1.3l0,0
			c-0.1-0.8,1-1.1,1.8-1.1l11.1-0.5c1.3-0.1,2-1.6,1.2-2.6L566.7,247.6z"/>
	</g>
	<g class="st19">
		<polygon class="st10" points="569.9,275 603,267.9 606.7,280.1 569.5,284.2 		"/>
	</g>
	<g class="st19">
		<polygon class="st10" points="568.6,274.8 544.4,271.8 541.7,279 568,283.8 		"/>
	</g>
	<g>
		<g>
			<path class="st14" d="M597.2,166.4c0,0,0.3,0.6,0.1,1.5c-0.2,0.9-0.9,2.2-2.3,2.8c-1.4,0.5-2.8,0.1-3.6-0.4c-0.8-0.5-1-1.1-1-1.1
				c0.1-0.1,0.4,0.4,1.2,0.8c0.7,0.4,2,0.6,3.2,0.2c1.2-0.5,1.9-1.6,2.2-2.4C597.2,166.9,597.1,166.4,597.2,166.4z"/>
		</g>
	</g>
	<g>
		<g>
			<path class="st14" d="M597.1,166.1c0,0-0.2,0.7-1.1,1.4c-0.4,0.4-1,0.7-1.7,0.9c-0.7,0.2-1.6,0.2-2.4-0.3
				c-0.8-0.4-1.3-1.1-1.7-1.7c-0.3-0.7-0.5-1.3-0.6-1.8c-0.1-1.1-0.1-1.7,0-1.8c0.1,0,0.1,0.7,0.4,1.7c0.2,1,0.8,2.5,2.1,3.2
				c0.7,0.4,1.4,0.4,2.1,0.3c0.6-0.1,1.2-0.4,1.6-0.7C596.6,166.6,597,166,597.1,166.1z"/>
		</g>
	</g>
	<g>
		<g>
			<path class="st8" d="M601.7,230.2c0,0-0.1-0.1-0.3-0.3c-0.2-0.2-0.4-0.5-0.7-0.9c-0.6-0.8-1.4-2.1-2.2-3.7
				c-1.6-3.3-3.2-8.2-3.3-13.8c-0.1-5.6,1.5-10.6,3-13.9c0.8-1.7,1.5-2.9,2.1-3.8c0.3-0.4,0.5-0.7,0.7-1c0.2-0.2,0.3-0.3,0.3-0.3
				c0,0-0.3,0.5-0.8,1.4c-0.5,0.9-1.2,2.2-2,3.8c-1.5,3.3-2.9,8.2-2.8,13.7c0.1,5.5,1.6,10.4,3.1,13.7c0.8,1.6,1.5,2.9,2,3.8
				C601.4,229.7,601.7,230.1,601.7,230.2z"/>
		</g>
	</g>
	<g>
		<g>
			<path class="st8" d="M573.7,222.2c0,0,0.4-0.4,1.2-1c0.8-0.6,1.9-1.5,3.1-2.8c2.5-2.4,5.6-6.3,8.2-10.9c2.7-4.7,4.5-9.2,5.9-12.4
				c0.6-1.6,1.2-2.9,1.6-3.9c0.4-0.9,0.6-1.4,0.6-1.4c0,0-0.1,0.5-0.5,1.5s-0.8,2.3-1.4,3.9c-1.3,3.3-3.1,7.8-5.8,12.6
				c-2.7,4.7-5.8,8.5-8.4,10.9c-1.3,1.2-2.4,2.1-3.3,2.7c-0.4,0.3-0.7,0.5-1,0.6C573.9,222.1,573.8,222.2,573.7,222.2z"/>
		</g>
	</g>
	<g>
		<g>
			<path class="st8" d="M565.6,190.6c0.1,0-0.5,1.7-0.9,4.5c-0.2,1.4-0.3,3.1-0.3,5c0,1.9,0.2,3.9,0.7,6.1c0.4,2.1,1.1,4.1,1.8,5.8
				c0.7,1.7,1.5,3.2,2.2,4.5c1.5,2.4,2.6,3.8,2.6,3.8c0,0-0.3-0.3-0.9-0.9c-0.3-0.3-0.6-0.7-0.9-1.1c-0.3-0.5-0.7-1-1.1-1.6
				c-0.8-1.2-1.6-2.7-2.3-4.5c-0.7-1.8-1.4-3.8-1.8-5.9c-0.4-2.2-0.6-4.3-0.6-6.2c0-1.9,0.2-3.6,0.4-5c0.1-0.7,0.3-1.3,0.4-1.9
				c0.1-0.6,0.3-1,0.4-1.4C565.5,191,565.6,190.5,565.6,190.6z"/>
		</g>
	</g>
	<g>
		<g>
			<path class="st8" d="M562,188.8c0.1,0-1.5,7.9-3.7,17.6c-2.2,9.7-4,17.5-4.2,17.5c-0.1,0,1.5-7.9,3.7-17.6
				C560,196.6,561.9,188.8,562,188.8z"/>
		</g>
	</g>
	<g>
		<g>
			<path class="st20" d="M511.6,181.8l3.3-11.6c0,0,1.2-4.7,1.5-5.8c0.4-1.5-0.6-1.9-1.3-0.9c-0.2,0.4-2.8,5.2-2.8,5.2
				s2.1-7.9,2.2-8.1c0.7-2.6-0.9-2.3-1.4-1.4c-0.5,0.9-3.4,8.7-3.4,8.7c2.8-10.1,2-11,1.2-11.2c-0.8-0.2-3.2,9.1-3.2,9.1
				s-0.8-1.6-2.4-2.7c-2.4-1.7-6.5-0.1-6.7,1.1c-0.2,1.1,1.2,1.5,1.2,1.5c3.1-1.9,6.2,0.5,5.9,3.4c-0.3,2.9-4,2.5-4.5,0.4
				c-1-4.6-2.6-3.1-2.6-3.1l1.5,10.1l-1.7,5"/>
		</g>
	</g>
	<g>
		<path class="st9" d="M457.6,141.7c3.8-1,6.1-2.4,6.1-3.8c0-3.1-9.9-5.6-22.2-5.6c-12.3,0-22.2,2.5-22.2,5.6c0,1.5,2.3,2.8,6.1,3.8
			"/>
	</g>
	<g class="st15">
		<path d="M455.5,141.6c3.4-0.9,5.5-2.1,5.4-3.4c-0.2-3.7-8.8-4.9-19.7-4.9s-19.7,2.2-19.7,4.9c0,1.3,2,2.5,5.4,3.4"/>
	</g>
	<g>
		<path class="st9" d="M460.7,136.4c0,0-3.2-13-3.4-13.7c-0.3-0.6-4-6.3-12.9-8H437c0,0-10.4,3.4-12.3,5.9
			c-1.9,2.5-2.7,14.9-2.7,14.9l20.6-4.5l14,3.4L460.7,136.4z"/>
	</g>
	<g>
		<path class="st9" d="M442,113.3c0.3,0,3.2,0,3.2,0s1.1,1,1.3,3.3c0.1,2.3,0.7,17.9,0.7,17.9l-9.2-0.4l0.3-19.3l-3.1,0.7l0.1-1.1
			l0.8-1L442,113.3z"/>
	</g>
	<g>
		<path class="st9" d="M393.7,439.7l-6.1,24.1l-10.3,17.6c-0.7,1.3-0.3,2.9,1.1,3.6l0,0c0.7,0.4,1.6,0.4,2.3,0
			c4.6-2.5,21.6-11.7,21.9-13.5c0.4-2.1,8.1-25,8.1-25L393.7,439.7z"/>
	</g>
	<g class="st12">
		<path class="st10" d="M378.4,485l24.7-15.2l-0.3,1c-0.2,0.9-0.8,1.6-1.5,2.2c-2,1.4-7.7,5-20.5,12
			C380.1,485.4,379.1,485.4,378.4,485L378.4,485z"/>
	</g>
	<g class="st12">
		<g>
			<path class="st10" d="M400.3,460.7c-0.7,0.2-1.2,1.1-0.9,1.8c0.2,0.7,1.1,1.2,1.8,0.9c0.7-0.2,1.3-1.2,1-1.9
				c-0.3-0.7-1.3-1.2-2-0.8"/>
		</g>
	</g>
	<g>
		<g>
			<path class="st8" d="M386.8,476c-0.2,0-0.3-1.4-1.6-2.4c-1.2-1.1-2.6-1.1-2.6-1.3c0-0.1,0.3-0.2,0.9-0.1c0.6,0.1,1.4,0.4,2,1
				c0.7,0.6,1.1,1.3,1.2,1.9C386.9,475.7,386.8,476,386.8,476z"/>
		</g>
	</g>
	<g>
		<g>
			<path class="st8" d="M384.2,478.8c-0.1,0.1-0.7-0.9-1.8-1.6c-1.1-0.7-2.3-0.8-2.3-0.9c0-0.1,1.3-0.3,2.5,0.5
				C383.9,477.5,384.3,478.7,384.2,478.8z"/>
		</g>
	</g>
	<g>
		<g>
			<path class="st8" d="M391.1,472.8c-0.1,0.1-1-1.4-2.7-2.7c-1.7-1.3-3.4-1.6-3.3-1.8c0-0.1,1.9,0,3.6,1.4
				C390.5,471,391.2,472.8,391.1,472.8z"/>
		</g>
	</g>
	<g>
		<g>
			<path class="st8" d="M393.5,465.7c-0.1,0.1-1.3-0.8-3-1.3c-1.7-0.6-3.2-0.5-3.2-0.7c0-0.1,1.5-0.5,3.4,0.1
				C392.5,464.4,393.6,465.6,393.5,465.7z"/>
		</g>
	</g>
	<g>
		<g>
			<path class="st8" d="M395.5,458.6c-0.1,0.1-1.2-1-3.1-1.5c-1.8-0.5-3.3,0.1-3.4-0.1c0-0.1,0.3-0.3,1-0.5c0.6-0.2,1.6-0.2,2.6,0
				c1,0.2,1.8,0.7,2.3,1.2C395.3,458.2,395.5,458.6,395.5,458.6z"/>
		</g>
	</g>
	<g>
		<g>
			<path class="st8" d="M392.8,455.8c0,0,0-0.3,0.2-0.9c0.2-0.6,0.6-1.4,1.4-2.2c0.4-0.4,0.8-0.9,1.6-1c0.4-0.1,0.9,0.1,1,0.5
				c0.2,0.4,0.2,0.8,0.1,1.2c-0.4,1.5-2.2,2.6-3.9,2.4c-1.8-0.3-3-1.7-3.4-3.2c-0.1-0.4,0-0.8,0.3-1.2c0.3-0.4,0.8-0.4,1.2-0.2
				c0.7,0.3,1,0.8,1.3,1.3c0.6,0.9,1,1.7,1.1,2.3c0.2,0.6,0.2,0.9,0.1,0.9c-0.1,0-0.3-1.3-1.6-3c-0.3-0.4-0.7-0.9-1.2-1.1
				c-0.2-0.1-0.5-0.1-0.6,0.1c-0.1,0.2-0.2,0.5-0.1,0.8c0.3,1.2,1.5,2.5,2.9,2.7c1.5,0.2,3-0.7,3.4-2c0.1-0.3,0.1-0.6,0-0.8
				c-0.1-0.2-0.3-0.3-0.6-0.3c-0.5,0.1-1,0.5-1.3,0.8C393.2,454.5,392.9,455.9,392.8,455.8z"/>
		</g>
	</g>
	<g>
		<path class="st9" d="M458.4,446.6l-1.3,19.2c0,0,19.1,7.8,19.2,11.4l-37.3-1.2l0.8-30L458.4,446.6z"/>
	</g>
	<g>
		<g>
			<path class="st7" d="M445.5,463.8c-0.7,0.2-1.3,1-1.1,1.7c0.1,0.7,0.9,1.3,1.7,1.1c0.7-0.2,1.4-1.1,1.2-1.8
				c-0.2-0.7-1.2-1.3-1.9-1"/>
		</g>
	</g>
	<g class="st12">
		<path class="st10" d="M438.9,475.9l0.2-3l35.7,2.3c0,0,1.6,0.8,1.4,1.9L438.9,475.9z"/>
	</g>
	<g>
		<g>
			<path class="st8" d="M457.6,465.6c0,0.2-0.9,0.2-1.8,0.8c-0.9,0.5-1.4,1.3-1.6,1.2c-0.2,0,0.1-1.1,1.3-1.8
				C456.6,465.2,457.7,465.5,457.6,465.6z"/>
		</g>
	</g>
	<g>
		<g>
			<path class="st8" d="M461.5,467.4c0,0.2-0.8,0.5-1.4,1.2c-0.7,0.7-0.9,1.6-1,1.5c-0.2,0-0.3-1,0.6-2
				C460.4,467.3,461.5,467.2,461.5,467.4z"/>
		</g>
	</g>
	<g>
		<g>
			<path class="st8" d="M463.6,472.1c-0.2,0-0.4-0.9,0.1-1.9c0.5-1,1.4-1.4,1.4-1.2c0.1,0.2-0.5,0.7-0.9,1.5
				C463.8,471.4,463.7,472.1,463.6,472.1z"/>
		</g>
	</g>
	<g>
		<g>
			<path class="st8" d="M457.5,461.2c-0.1,0.2-0.9-0.1-1.9-0.1c-1,0-1.8,0.3-1.9,0.2c-0.1-0.1,0.7-0.8,1.9-0.8
				C456.7,460.5,457.5,461.1,457.5,461.2z"/>
		</g>
	</g>
	<g>
		<g>
			<path class="st8" d="M457.6,457.4c0,0.1-0.7,0.2-1.9-0.1c-0.6-0.1-1.2-0.3-1.9-0.7c-0.3-0.2-0.7-0.4-1.1-0.6
				c-0.2-0.1-0.4-0.2-0.5-0.5c-0.2-0.2-0.3-0.7-0.1-1c0.2-0.3,0.5-0.4,0.8-0.4c0.3,0,0.5,0.1,0.7,0.1c0.4,0.1,0.8,0.3,1.1,0.4
				c0.7,0.3,1.3,0.8,1.7,1.2c0.8,0.8,1.1,1.5,1,1.6c-0.1,0.1-0.5-0.5-1.3-1.2c-0.4-0.3-1-0.7-1.6-1c-0.3-0.1-0.7-0.3-1.1-0.4
				c-0.4-0.1-0.7-0.1-0.8,0c0,0.1,0,0.1,0,0.2c0.1,0.1,0.2,0.2,0.4,0.3c0.3,0.2,0.6,0.4,1,0.6c0.6,0.3,1.3,0.6,1.8,0.8
				C457,457.2,457.7,457.3,457.6,457.4z"/>
		</g>
	</g>
	<g>
		<g>
			<path class="st8" d="M457.4,457.6c-0.1,0-0.4-0.6-0.4-1.8c0-0.6,0.1-1.3,0.3-2c0.1-0.4,0.3-0.7,0.5-1.1c0.2-0.4,0.5-0.8,1.2-0.9
				c0.4,0,0.7,0.3,0.8,0.5c0.1,0.3,0.1,0.5,0.2,0.7c0.1,0.4,0,0.9,0,1.3c-0.1,0.8-0.5,1.4-0.9,1.9c-0.8,0.9-1.5,1.1-1.5,1.1
				c-0.1-0.1,0.6-0.4,1.2-1.3c0.3-0.4,0.6-1,0.6-1.7c0-0.3,0.1-0.7,0-1.1c0-0.4-0.2-0.7-0.3-0.7c-0.2,0-0.5,0.3-0.7,0.6
				c-0.2,0.3-0.4,0.7-0.5,1c-0.3,0.7-0.4,1.3-0.4,1.9C457.3,456.9,457.5,457.6,457.4,457.6z"/>
		</g>
	</g>
	<g>
		<g>
			<g>
				<g>
					<g>
						<g>
							<g>
								<g>
									<g>
										<path class="st20" d="M427.7,186.5l22.4-1c0.1-2.4-1.1-17.1-1.1-17.1s8.5-1.3,8.6-9.8c0.1-8.5-1.2-25.4-1.2-25.4l-0.1-0.7
											c-9.8-4.2-21.2-4.6-29.6,1.9l-1.3,1L427.7,186.5z"/>
									</g>
								</g>
							</g>
						</g>
					</g>
				</g>
				<g>
					<g>
						<g>
							<g>
								<g>
									<g>
										<path class="st21" d="M449.1,168.3c0,0-5.4,0.4-11.1-3.1c0,0,2.6,6.1,11.1,5.3L449.1,168.3z"/>
									</g>
								</g>
							</g>
						</g>
					</g>
				</g>
			</g>
		</g>
	</g>
	<g>
		<g>
			<g>
				<g>
					<g>
						<g>
							<g>
								<path class="st20" d="M426.5,144.1c-0.1-0.1-5.8-1.7-5.6,4.1c0.2,5.8,6,4.4,6,4.2C426.8,152.3,426.5,144.1,426.5,144.1z"/>
							</g>
						</g>
					</g>
				</g>
			</g>
		</g>
		<g>
			<g>
				<g>
					<g>
						<g>
							<g>
								<g>
									<path class="st21" d="M425,150.3c0,0-0.1,0.1-0.3,0.2c-0.2,0.1-0.4,0.1-0.8,0c-0.6-0.2-1.2-1.2-1.2-2.2
										c0-0.5,0.1-1,0.2-1.5c0.2-0.4,0.4-0.7,0.7-0.8c0.3-0.1,0.5,0.1,0.6,0.3c0.1,0.2,0,0.3,0.1,0.3c0,0,0.1-0.1,0.1-0.3
										c0-0.1-0.1-0.2-0.2-0.4c-0.1-0.1-0.3-0.2-0.6-0.1c-0.4,0-0.8,0.5-1,0.9c-0.2,0.5-0.3,1-0.3,1.6c0.1,1.2,0.7,2.2,1.6,2.5
										c0.4,0.1,0.7,0,0.9-0.2C424.9,150.4,425,150.3,425,150.3z"/>
								</g>
							</g>
						</g>
					</g>
				</g>
			</g>
		</g>
	</g>
	<g>
		<g>
			<g>
				<g>
					<g>
						<g>
							<g>
								<path class="st8" d="M466.4,266.9l-3.7,191.6c0,1.3-1.1,2.3-2.4,2.3l-22.3-0.2c-1.3,0-2.4-1.1-2.3-2.4l3.5-164.9l-29,163.7
									c-0.4,2.1-2.2,3.5-4.3,3.5l-18.7-0.6c-2.5-0.1-4.4-2.4-4-4.9l29.4-188.8L466.4,266.9z"/>
							</g>
						</g>
					</g>
				</g>
			</g>
		</g>
	</g>
	<g>
		<g>
			<path class="st7" d="M512,181.6l-13.9-3.3l-9.2,24.8l-25.3-22.6l0,0c-2.7-2-7.3-2.2-10.9-2.7c-0.1,0-0.2,0-0.3,0
				c-1.4-0.2-2-0.4-2.9-0.5c-6.1,4.6-16.5,4.9-22.5,0.1c0,0-4.5,1-7.3,1.5c-8.5,1.6-14.7,7.9-16.4,13.6l10.7,24.7l2,23.4l-5.9,21
				c-0.6,2.1,0.8,4.3,3,4.6l53,0.8l0.9-0.4c1.1-2.1,1.9-4.4,1.4-6.7c-2.3-10-0.7-40-1.2-49.1c10.4,10.1,21.8,18.5,30.2,13.3
				C504.7,219.7,512,181.6,512,181.6z"/>
		</g>
		<g>
			<g>
				<g>
					<polygon class="st22" points="427.6,176.9 427.6,176.9 427.6,176.9 					"/>
				</g>
			</g>
		</g>
	</g>
	<g>
		<path class="st8" d="M425.5,138.7c0.2,2.4,0.2,4.7,0.4,7.1c0.1,0.9,0.5,1.7,0.8,2.5c0.4,0.8,1.1,1.5,2,1.6c1,0.1,2-0.6,2.5-1.6
			c0.5-0.9,0.5-2,0.5-3c0-1,0-2.1,0.3-3.1c0.4-1.1,1.2-2,1.8-3c0.6-1,1-2.2,0.5-3.3C431.1,135.8,428.2,137.1,425.5,138.7"/>
	</g>
	<g>
		<path class="st14" d="M456.8,137.6l-0.2-4.7l-13.9-4.1l-17.3,5.1v5.1C425.4,138.9,439.5,131.6,456.8,137.6z"/>
	</g>
	<g>
		<path class="st9" d="M455.7,131.8l0.6,0.6l5,3.1c0,0-9.6-2.7-19.5-2.6c-9.9,0.1-21.3,3.5-21.3,3.5l6.6-4l0,0c2.1-2.2,5-3.5,8-3.6
			l12.4-0.2C450.6,128.6,453.5,129.7,455.7,131.8z"/>
	</g>
	<g>
		<g>
			<path class="st8" d="M446.8,128.3c-0.1,0-0.4-2.9-0.6-6.6c-0.2-3.7-0.3-6.6-0.1-6.6c0.1,0,0.4,2.9,0.6,6.6
				C446.9,125.3,447,128.3,446.8,128.3z"/>
		</g>
	</g>
	<g>
		<g>
			<path class="st8" d="M435,115.5c0-0.1,0.8-0.4,2.3-0.7c0.4,0,1,0.4,1,0.9c0,0.5,0,0.9,0,1.4c0,1,0,2.1,0,3.2
				c0,2.2-0.1,4.3-0.2,5.7c-0.1,1.5-0.2,2.4-0.2,2.4s-0.1-0.9-0.1-2.4c0-1.5,0-3.5,0-5.8c0-1.1,0.1-2.2,0.1-3.2c0-0.5,0-0.9,0-1.4
				c0-0.3-0.3-0.6-0.6-0.6C435.9,115.4,435,115.5,435,115.5z"/>
		</g>
	</g>
	<g>
		<g>
			<path class="st8" d="M461.6,135.5c0,0-0.6-0.2-1.6-0.6c-0.5-0.2-1.2-0.4-1.9-0.8c-0.7-0.4-1.6-0.8-2.2-1.7
				c-0.7-0.9-0.8-2.1-1.5-2.9c-0.7-0.9-2.1-0.9-3.4-1c-2.7-0.1-5.6-0.1-8.7-0.1c-3.1,0.1-6,0.3-8.7,0.5c-1.3,0.1-2.6,0.3-3.4,1.1
				c-0.4,0.4-0.7,0.9-1,1.3c-0.2,0.2-0.3,0.4-0.5,0.7l-0.2,0.3c-0.1,0.1-0.3,0.2-0.4,0.3c-1.9,0.9-3.4,1.5-4.4,1.9
				c-1,0.4-1.6,0.7-1.6,0.7c0,0,0.1-0.1,0.4-0.3c0.3-0.1,0.6-0.4,1.2-0.6c1-0.5,2.5-1.2,4.3-2.1c0.1-0.1,0.2-0.1,0.3-0.2l0.2-0.3
				c0.2-0.2,0.3-0.4,0.5-0.7c0.3-0.5,0.6-1,1.1-1.4c0.9-0.9,2.3-1.2,3.7-1.3c2.7-0.2,5.6-0.4,8.7-0.5c3.1-0.1,6.1,0,8.7,0.1
				c0.7,0,1.3,0,2,0.2c0.6,0.1,1.3,0.5,1.7,1c0.8,1,0.9,2.2,1.5,3c0.5,0.8,1.3,1.3,2,1.7c0.7,0.4,1.4,0.6,1.9,0.8
				c0.5,0.2,0.9,0.4,1.2,0.6C461.5,135.4,461.6,135.5,461.6,135.5z"/>
		</g>
	</g>
	<g>
		<g>
			<path class="st8" d="M459.8,136.2c0,0-0.1,0-0.4-0.2c-0.2-0.1-0.6-0.3-1-0.5c-0.9-0.4-2.3-0.9-4.1-1.2c-3.5-0.7-8.6-1.2-14.1-0.7
				c-2.8,0.2-5.4,0.3-7.8,0.6c-2.4,0.3-4.5,0.8-6.2,1.2c-0.9,0.2-1.7,0.4-2.3,0.7c-0.7,0.2-1.2,0.5-1.6,0.8
				c-0.7,0.7-0.5,1.4-0.5,1.4c0,0-0.1-0.1-0.1-0.4c0-0.3,0.1-0.7,0.5-1.1c0.4-0.4,1-0.7,1.6-0.9c0.7-0.3,1.5-0.5,2.3-0.8
				c1.8-0.5,3.9-0.9,6.3-1.3c2.4-0.3,5-0.5,7.8-0.7c5.5-0.5,10.6,0,14.2,0.8c1.8,0.4,3.2,0.9,4.1,1.4c0.5,0.2,0.8,0.5,1,0.6
				C459.7,136.1,459.8,136.2,459.8,136.2z"/>
		</g>
	</g>
	<g>
		<g>
			<path class="st18" d="M443.8,113.7c0,0-0.5,0.1-1.3,0.1c-1.1,0-2.1,0.1-3.1,0.1c-1.2,0-2.3,0-3.1,0.1c-0.8,0.1-1,0.7-1,0.6
				c0,0,0-0.1,0.2-0.3c0.1-0.2,0.4-0.4,0.8-0.5c0.8-0.2,1.9-0.1,3.1-0.2c1.1,0,2,0,3.1,0C443.3,113.6,443.8,113.7,443.8,113.7z"/>
		</g>
	</g>
	<g>
		<g>
			<path class="st18" d="M445.3,128.9c0,0-0.2,0-0.7,0.1c-0.5,0-1.1,0.1-1.8,0.1c-1.5,0.1-3.6,0.2-5.9,0.4c-1.1,0.1-2.2,0.2-3.2,0.3
				c-1,0.1-1.9,0.2-2.6,0.4c-0.7,0.2-1.2,0.6-1.4,1c-0.2,0.3-0.3,0.6-0.3,0.6c0,0,0-0.3,0.2-0.6c0.2-0.4,0.7-0.8,1.4-1.1
				c0.7-0.3,1.6-0.3,2.6-0.4c1-0.1,2.1-0.2,3.2-0.3c2.3-0.2,4.4-0.3,5.9-0.3c0.6,0,1.2,0,1.8,0C445.1,128.9,445.3,128.9,445.3,128.9
				z"/>
		</g>
	</g>
	<g>
		<g>
			<path class="st18" d="M438.4,127.1c0,0,0-0.2,0-0.5c0-0.4,0.1-0.8,0.1-1.3c0.1-1.1,0.2-2.6,0.2-4.2c0-1.6,0-3.1,0-4.2
				c0-0.4,0-0.9,0-1.3c0-0.3,0-0.5,0-0.5c0,0,0,0.2,0.1,0.5c0,0.3,0.1,0.7,0.1,1.3c0,1.1,0.1,2.6,0,4.2c0,1.6-0.2,3.1-0.3,4.2
				c-0.1,0.5-0.1,1-0.2,1.3C438.5,126.9,438.4,127.1,438.4,127.1z"/>
		</g>
	</g>
	<g>
		<g>
			<path class="st18" d="M428,132.9c0,0-0.1,0.1-0.4,0.2c-0.4,0.2-0.7,0.3-1.1,0.5c-1.2,0.5-2.4,1-3.7,1.6c-0.7,0.3-1.4,0.6-2,0.9
				c-0.6,0.3-1,0.8-1.1,1.3c-0.2,0.5-0.1,0.9,0,1.1c0.1,0.3,0.2,0.4,0.2,0.4c0,0-0.1-0.1-0.3-0.4c-0.1-0.3-0.2-0.7,0-1.2
				c0.1-0.5,0.6-1,1.2-1.4c0.6-0.4,1.3-0.6,2-0.9c1.3-0.5,2.5-1,3.7-1.5c0.4-0.1,0.8-0.3,1.1-0.4C427.9,133,428,132.9,428,132.9z"/>
		</g>
	</g>
	<g>
		<polygon class="st7" points="425.5,179 426.7,170.5 438.3,174.8 441.5,180.5 443.6,174.2 449.9,172 452.6,177.6 448,184.2 
			439.2,186 		"/>
	</g>
	<g>
		<g>
			<path class="st8" d="M441.7,181.8c0,0-0.2-0.1-0.4-0.3c-0.3-0.2-0.6-0.6-1.1-1.1c-0.9-1-2-2.6-2.8-4.8l0.4,0
				c-0.8,2-1.7,4.3-2.7,6.7c-0.5,1.1-0.9,2.3-1.3,3.3l-0.1,0.3l-0.3-0.3c-2.3-2.3-4.3-4.2-5.8-5.6c-0.6-0.7-1.2-1.2-1.6-1.7
				c-0.4-0.4-0.6-0.6-0.6-0.7c0,0,0.3,0.2,0.7,0.5c0.5,0.4,1.1,1,1.8,1.6c1.5,1.4,3.5,3.3,5.9,5.5l-0.4,0.1c0.4-1.1,0.9-2.2,1.3-3.3
				c1-2.4,1.9-4.7,2.7-6.7l0.2-0.5l0.2,0.6c0.8,2.1,1.8,3.7,2.6,4.8C441.2,181.2,441.8,181.8,441.7,181.8z"/>
		</g>
	</g>
	<g>
		<g>
			<path class="st8" d="M452.6,177.6c0,0-0.4,0.8-1.4,1.9c-0.9,1.1-2.4,2.6-4.4,3.9l-0.3,0.2l-0.1-0.3c-0.4-1-0.8-2.1-1.3-3.3
				c-0.7-1.7-1.3-3.4-1.8-4.8l0.4,0c-0.4,1.9-0.9,3.5-1.1,4.6c-0.3,1.1-0.5,1.7-0.5,1.7c0,0,0-0.7,0.2-1.8c0.2-1.1,0.6-2.7,0.9-4.6
				l0.1-0.8l0.3,0.8c0.5,1.4,1.2,3.1,1.9,4.8c0.5,1.2,0.9,2.3,1.3,3.3l-0.4-0.1c2-1.2,3.4-2.6,4.4-3.7
				C452,178.3,452.5,177.6,452.6,177.6z"/>
		</g>
	</g>
	<g>
		<g>
			<path class="st8" d="M445.9,268.1c0,0,0-0.3,0.1-0.9c0.1-0.6,0.2-1.5,0.3-2.5c0.1-1.1,0.2-2.4,0.3-4c0.1-0.8,0.1-1.6,0.2-2.5
				c0-0.9,0.1-1.8,0.1-2.8c0.2-3.9,0.2-8.6,0.1-13.8c-0.1-5.2-0.4-10.9-0.8-16.9c-0.9-12-2-22.8-2.9-30.6c-0.4-3.9-0.8-7-1.1-9.3
				c-0.1-1.1-0.2-1.9-0.3-2.5c-0.1-0.6-0.1-0.9-0.1-0.9c0,0,0.1,0.3,0.2,0.9c0.1,0.6,0.2,1.5,0.4,2.5c0.3,2.2,0.7,5.3,1.2,9.2
				c1,7.8,2.2,18.6,3.1,30.6c0.4,6,0.7,11.7,0.8,16.9c0.1,5.2,0,9.9-0.2,13.8c-0.1,1-0.1,1.9-0.1,2.8c-0.1,0.9-0.1,1.7-0.2,2.5
				c-0.1,1.6-0.3,2.9-0.4,4c-0.2,1.1-0.3,1.9-0.4,2.5C446,267.8,445.9,268.1,445.9,268.1z"/>
		</g>
	</g>
	<g>
		<polygon class="st22" points="436.7,178.6 439.3,180 438.8,184.4 434.7,183.5 		"/>
	</g>
	<g>
		<polygon class="st9" points="436.7,178.6 439.3,180 438.8,184.4 434.7,183.5 		"/>
	</g>
	<g>
		<polygon class="st9" points="442.7,179.7 444.7,178 446.5,182.6 443.9,183.8 		"/>
	</g>
	<g>
		<polygon class="st9" points="439.8,185.5 438.6,237.6 447.4,246.4 451.6,234.8 443.2,185.2 		"/>
	</g>
	<g>
		<path class="st9" d="M439.8,178.4c0.6-0.1,1.4-0.2,2.1-0.4c0.6-0.1,1.3,0.2,1.6,0.7l1.1,2.1c0.2,0.3,0.2,0.6,0.1,1l-0.4,2.3
			c-0.1,0.6-0.6,1-1.1,1.1l-2.5,0.5c-0.6,0.1-1.3-0.2-1.6-0.8l-1.3-2.5c-0.2-0.4-0.2-0.8,0-1.2l0.9-2
			C438.9,178.7,439.3,178.4,439.8,178.4z"/>
	</g>
	<g>
		<g>
			<path class="st8" d="M443.5,178.9c0,0-0.2,0.3-0.7,0.8c-0.4,0.5-1,1.2-1.7,1.9c-0.7,0.7-1.3,1.4-1.8,1.9s-0.8,0.8-0.8,0.7
				c0,0,0.2-0.3,0.7-0.8c0.4-0.5,1-1.2,1.7-1.9c0.7-0.7,1.3-1.4,1.8-1.9C443.2,179.2,443.5,178.9,443.5,178.9z"/>
		</g>
	</g>
	<g>
		<g>
			<path class="st8" d="M440.9,181.3c0,0-0.6-0.4-1.2-1c-0.6-0.6-1.1-1.1-1.1-1.2c0,0,0.6,0.4,1.2,1
				C440.5,180.8,441,181.3,440.9,181.3z"/>
		</g>
	</g>
	<g>
		<g>
			<path class="st8" d="M443.9,184.7c-0.1,0,0.3-1.4,0.6-3c0.2-0.8-0.4-1.5-0.6-2c-0.3-0.5-0.3-0.9-0.3-0.9c0,0,0.1,0.3,0.4,0.8
				c0.1,0.2,0.3,0.5,0.5,0.8c0.2,0.3,0.3,0.8,0.2,1.2c-0.2,0.9-0.4,1.6-0.5,2.1C444,184.3,443.9,184.7,443.9,184.7z"/>
		</g>
	</g>
	<g>
		<g class="st13">
			<g>
				<path d="M414.2,250.9c2.3,2.2,5.6,3.1,8.7,2.5c2.2-0.4,4.3-1.6,6.5-1.5c2.4,0.2,4.5,1.9,6.7,2.9c4.2,1.9,9,1.3,13.4,0.1
					c2-0.5,4.2-1.3,5.5-2.9c1-1.3,1.4-2.9,1.7-4.5c0.5-3,0.7-6,0.7-9c0-1.9-0.3-3.9-1.5-5.4c-1-1.2-2.5-1.8-4-2
					c-1.5-0.2-3.1,0-4.6,0.3c-12,2-23.6,6.9-33.3,14.3"/>
			</g>
		</g>
		<g>
			<g>
				<path class="st7" d="M435.7,241c0,0-28,12.5-30.9,13.2c-9.5,2.1-20.3-6.9-17.3-17c1.1-3.8,16.2-45.7,16.2-45.7l14.3,19.8
					l-6.1,20.3l15.9-1.1L435.7,241z"/>
			</g>
		</g>
		<g>
			<g>
				<path class="st8" d="M426.6,230.6c0,0-0.4,0.1-1.1,0.2c-0.8,0.1-1.8,0.2-3.1,0.3c-2.6,0.2-6.3,0.5-10.4,0.7l-0.3,0l0.1-0.3
					c0.3-1,0.6-2.1,0.9-3.1c1.4-4.7,2.7-9,3.7-12.1c0.5-1.5,0.9-2.7,1.2-3.7c0.3-0.9,0.5-1.3,0.5-1.3c0,0-0.1,0.5-0.3,1.4
					c-0.3,1-0.6,2.2-1,3.7c-0.9,3.1-2.1,7.4-3.6,12.2c-0.3,1.1-0.6,2.1-0.9,3.1l-0.2-0.3c4.2-0.2,7.8-0.4,10.4-0.6
					c1.2,0,2.3-0.1,3.1-0.1C426.2,230.6,426.6,230.6,426.6,230.6z"/>
			</g>
		</g>
		<g>
			<g>
				<path class="st8" d="M432.6,242.6c0.1,0.1-6.1,2.8-13.7,5.9c-7.6,3.1-13.9,5.6-13.9,5.5c-0.1-0.1,6.1-2.8,13.7-5.9
					C426.3,244.9,432.5,242.5,432.6,242.6z"/>
			</g>
		</g>
		<g>
			<g>
				<g>
					<g>
						<path class="st14" d="M429.2,229.7L427,219c-0.2-0.9,0.5-1.7,1.4-1.7l27.8,0.1c0.8,0,1.5,0.7,1.4,1.5l-2.9,24.6
							c-0.1,1-0.9,1.7-1.9,1.7l-18.2-0.1c-0.9,0-1.6-0.6-1.8-1.4L429.2,229.7z"/>
					</g>
				</g>
				<g>
					<g>
						<g>
							<g>
								<path class="st20" d="M426.7,224L426.7,224c1.2,0,2.3,0.7,2.7,1.9c0.5,1.2,1.1,2.6,1.9,3c1.4,0.7,3.7,1.3,5,0.7
									c1.2-0.6,6.2-5.1,7.1-4.6c0.9,0.5,1.6,1.6,0.7,2.6c-0.9,1-5.5,4-4.6,5c0.9,1,10.6-3.4,12.1-3c1.5,0.4,2.4,1.3,1.5,1.9
									c-0.9,0.6-7.5,3.1-7.8,4c0,0,9.9-2.6,10.3-2c0.4,0.6,1,1.6,0,2c-1,0.4-9.6,2.6-10.3,3c-0.7,0.4-3.3,1.1-3.8,1.1
									c-0.3,0-2.2,0.7-4,1.3c-2,0.7-4.2,0.6-6.2-0.2l-1-0.4c-1.6-0.6-2.6-2.2-2.5-3.9l0.2-3.4l-1.1-2.8L426.7,224z"/>
							</g>
						</g>
					</g>
				</g>
			</g>
			<g>
				<path class="st18" d="M443.5,221.4c0,0.6-0.5,1-1,1c-0.6,0-1-0.5-1-1c0-0.6,0.5-1,1-1C443,220.4,443.5,220.9,443.5,221.4z"/>
			</g>
		</g>
	</g>
	<g>
		<rect x="450.8" y="204.3" class="st8" width="11.4" height="3.7"/>
	</g>
	<g>
		<polygon class="st14" points="423.7,273.1 411.5,272.8 412.1,269.1 424.1,269.6 		"/>
	</g>
	<g>
		<polygon class="st14" points="457.3,273 426.8,272.8 427.3,269.4 457.2,269.5 		"/>
	</g>
	<g>
		<path class="st18" d="M438.9,269.2v4c0,0.7,0.4,1.2,1,1.2h8.4c0.6,0,1-0.5,1-1.2v-4c0-0.7-0.4-1.2-1-1.2h-8.4
			C439.4,268.1,438.9,268.6,438.9,269.2z M448,273h-7.8v-3.4h7.8V273z"/>
	</g>
	<g>
		<polygon class="st14" points="459.9,269.6 459.9,273 466.3,273.1 466.4,269.4 		"/>
	</g>
	<g>
		<g>
			<path class="st14" d="M396.2,450.3c0,0,0-0.2,0.1-0.5c0-0.3,0.1-0.8,0.2-1.3c0.2-1.2,0.5-2.9,0.8-5.1c0.7-4.4,1.8-10.8,3.1-18.6
				c2.6-15.7,6.2-37.4,10.2-61.3c4-24,7.5-45.7,9.9-61.4c1.2-7.8,2.2-14.2,2.9-18.6c0.3-2.2,0.6-3.9,0.8-5.1c0.1-0.6,0.2-1,0.2-1.3
				c0.1-0.3,0.1-0.4,0.1-0.4s0,0.2,0,0.5c0,0.3-0.1,0.8-0.2,1.3c-0.2,1.2-0.4,2.9-0.7,5.1c-0.6,4.4-1.6,10.8-2.7,18.6
				c-2.4,15.7-5.8,37.4-9.8,61.4c-4,24-7.6,45.6-10.4,61.3c-1.4,7.8-2.5,14.2-3.3,18.6c-0.4,2.2-0.7,3.9-0.9,5
				c-0.1,0.6-0.2,1-0.3,1.3C396.2,450.2,396.2,450.3,396.2,450.3z"/>
		</g>
	</g>
	<g>
		<g>
			<path class="st14" d="M453.4,451c-0.1,0,0.1-39,0.6-87.1c0.5-48.1,0.9-87.1,1.1-87.1c0.1,0-0.1,39-0.6,87.1
				C454,412,453.5,451,453.4,451z"/>
		</g>
	</g>
	<g>
		<g>
			<path class="st14" d="M463.4,451.7c0,0.1-6.1,0.3-13.6,0.3c-7.5,0-13.6-0.1-13.6-0.3s6.1-0.3,13.6-0.3
				C457.3,451.4,463.4,451.5,463.4,451.7z"/>
		</g>
	</g>
	<g>
		<g>
			<path class="st14" d="M411.4,450.6c0,0-0.4,0.1-1.1,0.1c-0.8,0-1.8,0.1-3,0.1c-2.6,0.1-6,0.1-9.8,0.2c-3.8,0.1-7.3,0.1-9.8,0.1
				c-1.3,0-2.3,0-3-0.1c-0.7,0-1.1-0.1-1.1-0.1c0,0,0.4-0.1,1.1-0.1c0.8,0,1.8-0.1,3-0.1c2.6-0.1,6-0.1,9.8-0.2
				c3.8-0.1,7.3-0.1,9.8-0.1c1.3,0,2.3,0,3,0.1C411.1,450.6,411.4,450.6,411.4,450.6z"/>
		</g>
	</g>
	<g>
		<g>
			<path class="st8" d="M488.7,212.7c-0.1,0-0.3-2.3-0.3-5c0-2.8,0.1-5,0.3-5s0.3,2.3,0.3,5C489,210.4,488.9,212.7,488.7,212.7z"/>
		</g>
	</g>
	<g>
		<g>
			<path class="st8" d="M492.3,213.3c-0.1,0.1-1.2-2.2-2.3-5.2c-1-3-1.5-5.5-1.4-5.5c0.1,0,0.9,2.4,1.9,5.3
				C491.5,210.9,492.4,213.2,492.3,213.3z"/>
		</g>
	</g>
	<g>
		<path class="st22" d="M77.3,363.6c-1-1.5-2.2-2.1-3.7-3.1c-1.4-1-2.9-2.3-3.3-4c-0.4-1.7,0.6-3.9,2.4-4c1.8-0.1,2.9,1.8,3.7,3.4
			c1.4,2.8,3.4,6.1,4.7,9"/>
	</g>
	<g>
		<g>
			<path class="st23" d="M77.3,363.6c-1-1.5-2.2-2.1-3.7-3.1c-1.4-1-2.9-2.3-3.3-4c-0.4-1.7,0.6-3.9,2.4-4c1.8-0.1,2.9,1.8,3.7,3.4
				c1.4,2.8,3.4,6.1,4.7,9"/>
		</g>
	</g>
	<g>
		<path class="st22" d="M71.9,362.3c-4.9-1.2-10.4-1.9-15.3-0.8c-2.4,0.5-4.9,2-5.1,4.5c-0.1,1.6,0.9,3.2,2.3,4.1
			c3.3,2.3,7.9,1.5,11.6-0.2c3.7-1.7,7.8-4.7,11.1-6.5"/>
	</g>
	<g>
		<g>
			<path class="st23" d="M71.9,362.3c-4.9-1.2-10.4-1.9-15.3-0.8c-2.4,0.5-4.9,2-5.1,4.5c-0.1,1.6,0.9,3.2,2.3,4.1
				c3.3,2.3,7.9,1.5,11.6-0.2c3.7-1.7,7.8-4.7,11.1-6.5"/>
		</g>
	</g>
	<g>
		<path class="st22" d="M91.2,369.3c-4.7-0.3-9.5,0.5-14,2.2c-2,0.8-4,1.8-5.2,3.6c-1.8,2.7-0.9,6.7,1.5,8.8
			c2.4,2.1,6.1,2.6,9.2,1.6c3.1-1,5.7-3.2,7.6-5.8c2-2.6,3.8-4.8,5.2-7.7"/>
	</g>
	<g>
		<g>
			<path class="st23" d="M91.2,369.3c-4.7-0.3-9.5,0.5-14,2.2c-2,0.8-4,1.8-5.2,3.6c-1.8,2.7-0.9,6.7,1.5,8.8
				c2.4,2.1,6.1,2.6,9.2,1.6c3.1-1,5.7-3.2,7.6-5.8c2-2.6,3.8-4.8,5.2-7.7"/>
		</g>
	</g>
	<g>
		<path class="st22" d="M104.1,377.9c-1.8-2.4-3.1-5.3-3.8-8.3c-0.2-0.9-0.3-1.8-0.1-2.7c0.2-0.9,0.7-1.7,1.6-2.1c1-0.4,2.2,0,3,0.7
			c0.8,0.7,1.3,1.7,1.7,2.7c2.3,5.4,3.3,11.5,4.5,17.3"/>
	</g>
	<g>
		<g>
			<path class="st23" d="M104.1,377.9c-1.8-2.4-3.1-5.3-3.8-8.3c-0.2-0.9-0.3-1.8-0.1-2.7c0.2-0.9,0.7-1.7,1.6-2.1
				c1-0.4,2.2,0,3,0.7c0.8,0.7,1.3,1.7,1.7,2.7c2.3,5.4,3.3,11.5,4.5,17.3"/>
		</g>
	</g>
	<g>
		<path class="st22" d="M107.5,382.3c-6.2-1-12.9,0.8-17.6,5c-1.3,1.2-2.6,2.6-3.2,4.2c-0.6,1.7-0.5,3.7,0.7,5.1
			c1.5,1.7,4.2,1.9,6.3,1.2c2.6-0.8,4.7-2.7,6.7-4.5c3.2-2.9,6.4-5.7,9.6-8.6"/>
	</g>
	<g>
		<g>
			<path class="st23" d="M107.5,382.3c-6.2-1-12.9,0.8-17.6,5c-1.3,1.2-2.6,2.6-3.2,4.2c-0.6,1.7-0.5,3.7,0.7,5.1
				c1.5,1.7,4.2,1.9,6.3,1.2c2.6-0.8,4.7-2.7,6.7-4.5c3.2-2.9,6.4-5.7,9.6-8.6"/>
		</g>
	</g>
	<g>
		<path class="st9" d="M107.8,357.3c0.9-7.7,5.1-14.9,11.4-19.4c2-1.4,4.2-2.5,6.5-2.8c2.4-0.2,5,0.6,6.4,2.5c1.7,2.4,1.3,5.7,0,8.4
			c-2.1,4.3-6.1,7.4-10.5,9.2c-4.4,1.8-9.2,2.5-14,2.8"/>
	</g>
	<g>
		<path class="st9" d="M103.2,340.3c0.8-4.9,3.4-9.3,6.4-13.2c1-1.3,2-2.5,3.3-3.4c1.3-0.9,2.9-1.4,4.5-1.1c2.1,0.5,3.7,2.5,4,4.7
			c0.3,2.2-0.6,4.4-2.1,6c-1.4,1.7-3.3,2.9-5.2,3.9c-3.3,1.7-6.9,2.9-10.6,3.6"/>
	</g>
	<g>
		<path class="st9" d="M100.8,325.2c0.1-6.3,2.6-13.5,7.4-17.6c0.8-0.7,2-1.4,3-0.9c0.5,0.3,0.8,0.9,1,1.5c1.4,3.7,0.8,8.1-1.4,11.4
			C108.7,323,104.8,325.1,100.8,325.2"/>
	</g>
	<g>
		<path class="st9" d="M100.5,319.1c-0.2-5.5-3-10.1-6.4-14.4c-0.8-1-1.8-2-3.1-1.9c-1.7,0.1-2.7,2.1-2.9,3.8c-0.3,3.2,0.8,6.6,3,9
			C93.4,318,97.2,319.1,100.5,319.1"/>
	</g>
	<g>
		<path class="st9" d="M101.7,304.2c-2.8-4.5-3.3-12-0.6-16.6c0.9-1.5,2-2.9,3.5-3.7c1.5-0.9,3.4-1.1,5-0.5c2.8,1.1,3.9,4.6,3.3,7.4
			c-0.7,2.9-2.7,5.2-4.9,7.2C105.9,300,103.4,301.8,101.7,304.2"/>
	</g>
	<g>
		<path class="st9" d="M102.2,335.2c-1.7-2.4-3.4-4.8-5.6-6.8c-2.2-2-4.9-3.5-7.8-3.9c-2.9-0.4-6.1,0.4-8.1,2.5
			c-2.1,2.1-2.8,5.6-1.3,8.1c1.1,2,3.3,3.2,5.4,3.9c5.7,2,12.1,2,17.7-0.2"/>
	</g>
	<g>
		<path class="st9" d="M107,354.7c-2.2-3-5.1-5.4-8.6-6.7c-3.5-1.3-7.4-1.2-10.8,0.4c-1.6,0.8-3.2,2.2-3.2,4c0,1.8,1.7,3.2,3.3,4.1
			c5.9,3.3,13.3,3.6,19.5,0.9"/>
	</g>
	<g>
		<path class="st9" d="M115.5,382.4c-0.9-4.6-0.2-9,2.2-13.1c2.4-4,6.3-7.1,10.7-8.7c1.7-0.6,3.5-1,5.3-0.7c1.8,0.3,3.5,1.3,4.3,2.9
			c1.4,2.7-0.5,6.1-3,7.8c-2.6,1.7-5.4,3.3-8.3,4.2c-4.5,1.5-8.6,6.6-10.3,10.3"/>
	</g>
	<g>
		<path class="st9" d="M120.6,403c-0.2-6,1.4-11.2,4.6-16.4c1.6-2.7,3.8-5.1,6.6-6.4s6.5-1,8.7,1.3c2.8,2.9,2,7.9-0.6,10.9
			c-2.5,3.1-6.4,4.7-10,6.4c-3.6,1.7-6.5,3.6-8.7,6.9"/>
	</g>
	<g>
		<path class="st9" d="M123.8,419.9c1.4-5.1,3-10.2,6.1-14.4c3.1-4.2,8.2-7.4,13.4-6.8c2.5,0.2,5.1,1.5,6,3.8
			c1.2,2.8-0.4,6.1-2.4,8.4c-2.9,3.3-6.7,5.7-10.8,6.8c-2.3,0.7-4.8,1-7,1.8c-2.3,0.9-4.4,2.4-5.2,4.7"/>
	</g>
	<g>
		<path class="st9" d="M124.2,426.9c-1.6-5.3-6.5-9-11.4-11.7c-3.7-2-7.8-3.7-11.9-3.2c-4.2,0.5-8.2,4-7.9,8.2
			c0.3,4.2,4.7,7.2,8.9,7.8c4.2,0.6,8.5-0.4,12.7-0.3c4.3,0.1,8.3,1.3,10.1,5.2"/>
	</g>
	<g>
		<path class="st9" d="M121.6,408.5c-1.8-5.4-6.5-9.7-12-11c-1.6-0.4-3.4-0.5-4.8,0.3c-2,1.2-2.7,4-1.8,6.2c0.9,2.2,2.9,3.7,5.1,4.4
			c2.2,0.8,4.6,0.9,6.9,1c2.3,0.1,4.7,0.2,6.9,0.9"/>
	</g>
	<g>
		<path class="st22" d="M85.9,366.4c-1.2-1.3-2.2-2.5-2.6-4.3c-0.1-0.5-0.2-1.1,0.1-1.6c0.4-0.6,1.2-0.8,1.9-0.5
			c0.7,0.2,1.2,0.7,1.7,1.3c2.1,2.2,4.1,5.7,5.7,8.3"/>
	</g>
	<g>
		<g>
			<path class="st8" d="M107.5,286.9c0,0,0,0.1-0.2,0.4c-0.1,0.3-0.3,0.6-0.5,1c-0.2,0.5-0.5,1-0.8,1.7c-0.3,0.7-0.6,1.5-1,2.4
				c-0.7,1.8-1.5,4-2.2,6.7c-0.6,2.7-1.3,5.7-1.7,9.1c-0.8,6.8-0.8,15.1,0.6,24.2c1.4,9,4.1,18.7,7.2,28.8
				c3.2,10.1,6.5,19.6,8.8,28.4c2.4,8.8,3.9,17,5,23.8c1,6.8,1.5,12.4,1.8,16.3c0.1,1.9,0.2,3.4,0.2,4.5c0,0.5,0,0.9,0,1.2
				c0,0.3,0,0.4,0,0.4c0,0,0-0.1,0-0.4c0-0.3,0-0.7-0.1-1.2c-0.1-1-0.2-2.5-0.3-4.4c-0.3-3.9-0.9-9.4-1.9-16.3
				c-1.1-6.8-2.7-14.9-5.1-23.7c-2.4-8.8-5.7-18.3-8.9-28.4c-3.2-10.1-5.8-19.8-7.2-28.9c-1.4-9.1-1.4-17.4-0.5-24.3
				c0.4-3.4,1.1-6.5,1.8-9.2c0.8-2.7,1.5-4.9,2.3-6.7c0.4-0.9,0.7-1.7,1-2.4c0.3-0.7,0.6-1.2,0.9-1.7c0.2-0.4,0.4-0.8,0.5-1
				C107.4,287,107.5,286.9,107.5,286.9z"/>
		</g>
	</g>
	<g>
		<g>
			<path class="st8" d="M66.2,361.4c0,0,0.3,0,0.7,0c0.5,0.1,1.2,0.1,2.1,0.2c1.8,0.2,4.4,0.7,7.6,1.5c6.3,1.6,14.8,5,22.8,10.9
				c4,2.9,7.5,6.2,10.3,9.5c2.8,3.3,5,6.5,6.6,9.3c1.6,2.8,2.7,5.2,3.4,6.9c0.4,0.8,0.6,1.5,0.8,1.9c0.2,0.4,0.2,0.7,0.2,0.7
				c0,0-0.1-0.2-0.3-0.7c-0.2-0.4-0.5-1.1-0.9-1.9c-0.8-1.6-1.9-4-3.5-6.8c-1.6-2.8-3.8-6-6.6-9.2c-2.8-3.2-6.3-6.4-10.3-9.4
				c-7.9-5.9-16.4-9.3-22.6-11c-3.1-0.9-5.7-1.4-7.5-1.7c-0.9-0.2-1.6-0.2-2.1-0.3C66.4,361.5,66.2,361.5,66.2,361.4z"/>
		</g>
	</g>
	<g>
		<g>
			<path class="st8" d="M123.4,343.6c0,0.1-1,0.7-2.6,1.8c-1.6,1.1-3.8,2.7-5.9,4.8c-2.2,2-3.9,4.1-5.1,5.6c-1.2,1.5-1.9,2.5-2,2.5
				c0,0,0.1-0.3,0.4-0.8c0.3-0.5,0.7-1.1,1.3-2c1.1-1.6,2.9-3.7,5.1-5.8c2.2-2.1,4.4-3.7,6.1-4.7c0.8-0.5,1.5-0.9,2-1.2
				C123.1,343.7,123.4,343.6,123.4,343.6z"/>
		</g>
	</g>
	<g>
		<g>
			<path class="st8" d="M130,365.7c0,0.1-1.3,0.5-3.3,1.7c-1.9,1.1-4.4,3.1-6.4,5.9c-2,2.8-3,5.8-3.5,8c-0.5,2.2-0.4,3.6-0.5,3.6
				c0,0-0.1-0.4-0.1-1c0-0.6,0.1-1.6,0.2-2.7c0.4-2.3,1.4-5.4,3.4-8.2c2-2.9,4.7-4.8,6.7-5.9c1-0.5,1.9-0.9,2.5-1.1
				C129.6,365.8,130,365.7,130,365.7z"/>
		</g>
	</g>
	<g>
		<g>
			<path class="st8" d="M132.6,386.5c0.1,0.1-1,0.7-2.6,2.1c-1.6,1.3-3.5,3.4-5.1,6c-1.6,2.7-2.6,5.4-3,7.3c-0.5,2-0.6,3.3-0.7,3.3
				c0,0,0-0.3,0-0.9c0-0.6,0.1-1.4,0.3-2.4c0.4-2,1.3-4.8,2.9-7.5c1.7-2.7,3.7-4.8,5.4-6.1c0.8-0.6,1.5-1.1,2-1.4
				C132.3,386.6,132.6,386.5,132.6,386.5z"/>
		</g>
	</g>
	<g>
		<g>
			<path class="st8" d="M139.2,406.6c0,0.1-1.1,0.6-2.9,1.6c-1.8,1-4.1,2.7-6.3,4.9c-2.2,2.2-3.7,4.6-4.7,6.4c-1,1.8-1.4,3-1.5,3
				c0,0,0.1-0.3,0.2-0.9c0.2-0.6,0.5-1.3,1-2.3c0.9-1.9,2.5-4.3,4.7-6.6c2.2-2.3,4.6-3.9,6.5-4.9c0.9-0.5,1.7-0.8,2.2-1
				C138.9,406.7,139.2,406.6,139.2,406.6z"/>
		</g>
	</g>
	<g>
		<g>
			<path class="st8" d="M107.9,401.5c0-0.1,1-0.2,2.5,0c1.5,0.2,3.7,0.8,5.7,2c2.1,1.2,3.6,2.8,4.5,4.1c0.9,1.3,1.3,2.2,1.2,2.2
				c-0.1,0-0.6-0.8-1.5-2c-1-1.2-2.5-2.6-4.5-3.8c-2-1.2-4-1.8-5.5-2.1C108.8,401.6,107.9,401.6,107.9,401.5z"/>
		</g>
	</g>
	<g>
		<g>
			<path class="st8" d="M105.4,420c0,0,0.2-0.3,0.7-0.5c0.5-0.2,1.4-0.5,2.5-0.3c1.1,0.1,2.3,0.5,3.5,1.1c1.2,0.6,2.6,1.2,4,2
				c2.8,1.5,5.1,3.3,6.5,4.8c0.7,0.7,1.2,1.4,1.6,1.9c0.3,0.5,0.5,0.8,0.4,0.8c-0.1,0.1-0.8-1-2.3-2.4c-1.5-1.4-3.7-3.1-6.5-4.6
				c-1.4-0.8-2.7-1.4-3.9-2c-1.2-0.6-2.3-1.1-3.3-1.2C106.6,419.2,105.5,420.1,105.4,420z"/>
		</g>
	</g>
	<g>
		<g>
			<path class="st8" d="M108.7,383.9c0,0.2-3.9,0.5-8.1,2.6c-4.2,2.1-6.8,5.2-6.9,5c0,0,0.5-0.8,1.7-1.9c1.1-1.1,2.9-2.5,5-3.6
				c2.2-1.1,4.3-1.7,5.8-2C107.7,383.9,108.7,383.9,108.7,383.9z"/>
		</g>
	</g>
	<g>
		<g>
			<path class="st8" d="M108.5,383.5c-0.1,0-0.5-0.6-1.1-1.7c-0.6-1.1-1.3-2.7-1.9-4.5c-0.6-1.8-1-3.5-1.2-4.8c-0.2-1.2-0.2-2-0.2-2
				c0.2,0,0.6,3,1.8,6.6C107.2,380.7,108.7,383.4,108.5,383.5z"/>
		</g>
	</g>
	<g>
		<g>
			<path class="st8" d="M107,356.5c-0.1,0.1-3-1.7-7.1-2.7c-4.1-1.1-7.5-1-7.5-1.1c0-0.1,0.9-0.2,2.2-0.1c1.4,0,3.3,0.2,5.4,0.8
				c2.1,0.5,3.8,1.3,5.1,2C106.4,355.9,107,356.5,107,356.5z"/>
		</g>
	</g>
	<g>
		<g>
			<path class="st8" d="M117,327.5c0,0.1-0.8,0.7-2.2,1.7c-1.4,1-3.2,2.5-5.1,4.2c-1.9,1.7-3.5,3.4-4.7,4.7c-1.1,1.3-1.8,2.1-1.9,2
				c-0.1,0,0.5-0.9,1.6-2.3c1.1-1.3,2.7-3.1,4.6-4.8c1.9-1.8,3.8-3.2,5.3-4.1C116,328,117,327.5,117,327.5z"/>
		</g>
	</g>
	<g>
		<g>
			<path class="st8" d="M103,338.3c0,0.1-0.9-0.5-2.4-1.3c-1.4-0.8-3.5-1.8-5.9-2.7c-2.4-0.8-4.6-1.4-6.2-1.7
				c-1.6-0.3-2.7-0.4-2.6-0.5c0-0.1,1-0.1,2.7,0.1c1.7,0.2,3.9,0.7,6.4,1.5c2.4,0.9,4.5,1.9,5.9,2.8
				C102.2,337.6,103,338.3,103,338.3z"/>
		</g>
	</g>
	<g>
		<g>
			<path class="st8" d="M108.9,313.4c0.1,0.1-2.1,2.3-4.4,5.5c-2.3,3.1-3.8,5.9-3.9,5.8c-0.1,0,0.2-0.8,0.8-1.9
				c0.6-1.1,1.5-2.6,2.7-4.2c1.2-1.6,2.3-2.9,3.2-3.8C108.3,313.8,108.9,313.3,108.9,313.4z"/>
		</g>
	</g>
	<g>
		<g>
			<path class="st8" d="M100.3,318.5c-0.1,0-0.5-0.7-1.2-1.8c-0.8-1.1-1.9-2.5-3.4-3.9c-1.5-1.4-2.9-2.6-4-3.4
				c-1-0.9-1.7-1.4-1.6-1.5c0-0.1,0.8,0.4,1.9,1.2c1.1,0.8,2.6,1.9,4.1,3.4c1.5,1.4,2.7,2.9,3.4,4.1
				C100.1,317.6,100.3,318.4,100.3,318.5z"/>
		</g>
	</g>
	<g>
		<g>
			<path class="st8" d="M93.6,370.5c0,0.2-3.2,0.7-6.6,2.5c-3.5,1.8-5.7,4.1-5.9,4c0,0,0.5-0.7,1.4-1.6c1-0.9,2.4-2,4.2-2.9
				c1.8-0.9,3.5-1.5,4.8-1.8C92.8,370.5,93.6,370.5,93.6,370.5z"/>
		</g>
	</g>
	<g>
		<g>
			<path class="st8" d="M72.1,362.8c0,0.2-3.2,0.3-6.9,1.4c-3.8,1-6.6,2.4-6.7,2.3c0-0.1,0.6-0.5,1.8-1c1.2-0.6,2.8-1.2,4.7-1.7
				c1.9-0.5,3.7-0.8,5-0.9C71.3,362.6,72.1,362.7,72.1,362.8z"/>
		</g>
	</g>
	<g>
		<g>
			<path class="st8" d="M78.6,364.2c-0.1,0.1-1.1-1.5-2.2-3.5c-1.1-2-1.9-3.7-1.8-3.8c0.1-0.1,1.1,1.5,2.2,3.5
				C77.9,362.5,78.7,364.1,78.6,364.2z"/>
		</g>
	</g>
	<g>
		<g>
			<path class="st23" d="M85.9,366.4c-1.2-1.3-2.2-2.5-2.6-4.3c-0.1-0.5-0.2-1.1,0.1-1.6c0.4-0.6,1.2-0.8,1.9-0.5
				c0.7,0.2,1.2,0.7,1.7,1.3c2.1,2.2,4.1,5.7,5.7,8.3"/>
		</g>
	</g>
	<g>
		<path class="st23" d="M124.8,477.2L124.8,477.2c-12.3,0-22.3-10-22.3-22.3v-19.2h44.6v19.2C147.1,467.2,137.1,477.2,124.8,477.2z"
			/>
	</g>
	<g>
		<g>
			<path class="st8" d="M147.1,449.2c0,0-0.6-0.2-1.7-0.5c-1.1-0.4-2.7-0.9-4.7-1.4c-2-0.5-4.5-0.9-7.2-0.7
				c-1.4,0.1-2.7,0.4-4.1,0.9c-1.4,0.5-2.8,1.2-4.3,1.8c-1.5,0.6-3,1.1-4.5,1.3c-1.5,0.2-3,0-4.4-0.3c-2.7-0.6-5-1.6-7-2.2
				c-2-0.6-3.6-1-4.8-1c-0.6-0.1-1,0-1.3,0c-0.3,0-0.5,0-0.5,0c0,0,0.2,0,0.5-0.1c0.3,0,0.8-0.1,1.3-0.1c1.2,0,2.9,0.3,4.9,0.9
				c2,0.6,4.3,1.5,7,2.1c1.3,0.3,2.8,0.4,4.2,0.3c1.5-0.2,2.9-0.6,4.4-1.2c1.5-0.6,2.9-1.3,4.3-1.8c1.4-0.5,2.9-0.8,4.3-0.9
				c2.8-0.2,5.3,0.3,7.3,0.8c2,0.5,3.6,1.1,4.7,1.6c0.5,0.2,1,0.4,1.2,0.5C146.9,449.1,147.1,449.2,147.1,449.2z"/>
		</g>
	</g>
	<g>
		<g>
			<path class="st8" d="M147.1,446.5c0,0-0.6-0.2-1.7-0.5c-1.1-0.4-2.7-0.9-4.7-1.4c-2-0.5-4.5-0.9-7.2-0.7
				c-1.4,0.1-2.7,0.4-4.1,0.9c-1.4,0.5-2.8,1.2-4.3,1.8c-1.5,0.6-3,1.1-4.5,1.3c-1.5,0.2-3,0-4.4-0.3c-2.7-0.6-5-1.6-7-2.2
				c-2-0.6-3.6-1-4.8-1c-0.6-0.1-1,0-1.3,0c-0.3,0-0.5,0-0.5,0c0,0,0.2,0,0.5-0.1c0.3,0,0.8-0.1,1.3-0.1c1.2,0,2.9,0.3,4.9,0.9
				c2,0.6,4.3,1.5,7,2.1c1.3,0.3,2.8,0.4,4.2,0.3c1.5-0.2,2.9-0.6,4.4-1.2c1.5-0.6,2.9-1.3,4.3-1.8c1.4-0.5,2.9-0.8,4.3-0.9
				c2.8-0.2,5.3,0.3,7.3,0.8c2,0.5,3.6,1.1,4.7,1.6c0.5,0.2,1,0.4,1.2,0.5C146.9,446.4,147.1,446.5,147.1,446.5z"/>
		</g>
	</g>
</g>
</svg>
